<svg xmlns="http://www.w3.org/2000/svg" viewBox="0 0 627.58 958.83"><defs><style>.cls-1{isolation:isolate;}.cls-2{opacity:0.3;mix-blend-mode:hue;}.cls-3{fill:#cfe6d8;}</style></defs><g class="cls-1"><g id="Calque_2" data-name="Calque 2"><g id="Fond_uterus_vert" data-name="Fond uterus vert"><g id="LOGO" class="cls-2"><path class="cls-3" d="M600.16,34.22c-17.23-14.7-83.79-55.54-211.43,23.69-25.84,16.34-48.55,36.76-66.56,61.26a688.93,688.93,0,0,1-72-39.21C186,41.72,118.81,1.93,0,0V30.82c.6.88,1.18,1.77,1.7,2.7,109.77,2.19,169.82,37.84,233.55,75,21.92,13.07,43.85,26.14,68.91,37.58C233.68,255.58,211,421.38,190.61,571.67h0C164.77,762,142.06,926.16,40.26,926.16c-9.4,0-18-3.27-25.84-8.17q31.71-39.19,54-112.71C94.29,722,108.39,612.51,108.39,504.7c0-70.62-8.14-296.94-108.39-309.8v32.49C46.6,240,77.07,350.27,77.07,503.88c0,104.55-14.1,210.73-38.37,290.78C27,831.87,14.27,861.79,0,883.5v63.68a85.71,85.71,0,0,0,40.27,11.65c129.2,0,155-186.23,181.67-383.07C242.3,426.28,265,261.29,333.14,158.38,386.39,178.8,442.77,187,499.93,183.7c64.21-2.45,111.19-29.41,124.5-71.06C633.05,84.05,623.65,52.19,600.16,34.22ZM593.9,102c-7,22-36,45.74-96.32,48.19-48.55,4.08-97.89-2.45-144.87-18.79a215.86,215.86,0,0,1,51.68-45.74c87.7-54.73,148-49,175.41-26.14C592.33,69.34,598.59,86.5,593.9,102Z"/></g></g></g></g></svg>