<svg width="420" height="869" viewBox="0 0 420 869" fill="none" xmlns="http://www.w3.org/2000/svg">
<g clip-path="url(#clip0)">
<g opacity="0.35">
<path d="M419.35 118.9C403.6 129.9 379.35 138.24 344.93 139.64C296.38 143.73 247.05 137.19 200.06 120.85C214.73 102.938 232.178 87.4947 251.74 75.11C331.91 25.11 389.17 25.57 419.35 43.49V7.67998C386 -4.66002 326.32 -8.66002 236.08 47.35C210.24 63.68 187.53 84.1 169.52 108.61C144.768 96.9709 120.726 83.878 97.52 69.4C67.37 51.4 36.52 33.12 0.04 18.55C0.270297 20.2336 0.387227 21.9307 0.39 23.63V54.34C29.79 67.05 55.89 82.34 82.64 97.99C104.57 111.06 126.49 124.13 151.55 135.56C81 245 58.33 410.82 38 561.11C27 642.07 16.54 718.3 0.35 779.17V868.88C37.8 796.3 53.41 682.64 69.29 565.19C89.65 415.72 112.36 250.73 180.49 147.81C233.74 168.23 290.12 176.4 347.29 173.13C374.95 172.13 399.4 166.46 419.35 157.13V118.9Z" fill="#418790"/>
</g>
</g>
<defs>
<clipPath id="clip0">
<rect width="419.35" height="868.88" fill="white"/>
</clipPath>
</defs>
</svg>
