<svg xmlns="http://www.w3.org/2000/svg" width="28.86" height="37.001" viewBox="0 0 28.86 37.001">
  <g id="noun_article_1103773" transform="translate(0.25 0.25)">
    <g id="Groupe_144" data-name="Groupe 144">
      <g id="Groupe_143" data-name="Groupe 143">
        <rect id="Rectangle_1483" data-name="Rectangle 1483" width="6.754" height="0.537" transform="translate(11.228 7.112)" fill="#eb7099" stroke="#eb7099" stroke-width="0.5"/>
        <path id="Tracé_126" data-name="Tracé 126" d="M42.658,17H18.547a.423.423,0,0,0-.447.447V49.654a.423.423,0,0,0,.447.447h24.11a.423.423,0,0,0,.447-.447V17.447A.448.448,0,0,0,42.658,17ZM42.21,49.207H18.995V17.895H42.21Z" transform="translate(-18.1 -13.6)" fill="#eb7099" stroke="#eb7099" stroke-width="0.5"/>
        <path id="Tracé_127" data-name="Tracé 127" d="M47.434,13.668a.289.289,0,0,0-.268-.268H23.1v.537H46.942V45.875h.537C47.434,45.875,47.434,13.668,47.434,13.668Z" transform="translate(-20.863 -11.611)" fill="#eb7099" stroke="#eb7099" stroke-width="0.5"/>
        <path id="Tracé_128" data-name="Tracé 128" d="M51.379,41.875V9.668A.289.289,0,0,0,51.11,9.4H27v.537H50.842V41.875Z" transform="translate(-23.019 -9.4)" fill="#eb7099" stroke="#eb7099" stroke-width="0.5"/>
        <path id="Tracé_129" data-name="Tracé 129" d="M26.568,32.391h4.563a.289.289,0,0,0,.268-.268V25.368a.289.289,0,0,0-.268-.268H26.568a.289.289,0,0,0-.268.268v6.754A.289.289,0,0,0,26.568,32.391Zm.268-6.754h4.026v6.218H26.837Z" transform="translate(-22.632 -18.077)" fill="#eb7099" stroke="#eb7099" stroke-width="0.5"/>
        <rect id="Rectangle_1484" data-name="Rectangle 1484" width="9.886" height="0.537" transform="translate(11.228 9.349)" fill="#eb7099" stroke="#eb7099" stroke-width="0.5"/>
        <rect id="Rectangle_1485" data-name="Rectangle 1485" width="9.886" height="0.537" transform="translate(11.228 13.912)" fill="#eb7099" stroke="#eb7099" stroke-width="0.5"/>
        <rect id="Rectangle_1486" data-name="Rectangle 1486" width="9.886" height="0.537" transform="translate(11.228 11.63)" fill="#eb7099" stroke="#eb7099" stroke-width="0.5"/>
        <rect id="Rectangle_1487" data-name="Rectangle 1487" width="17.177" height="0.537" transform="translate(3.892 17.49)" fill="#eb7099" stroke="#eb7099" stroke-width="0.5"/>
        <rect id="Rectangle_1488" data-name="Rectangle 1488" width="17.177" height="0.537" transform="translate(3.892 20.532)" fill="#eb7099" stroke="#eb7099" stroke-width="0.5"/>
        <rect id="Rectangle_1489" data-name="Rectangle 1489" width="17.177" height="0.537" transform="translate(3.892 23.529)" fill="#eb7099" stroke="#eb7099" stroke-width="0.5"/>
      </g>
      <rect id="Rectangle_1490" data-name="Rectangle 1490" width="17.177" height="0.537" transform="translate(3.892 26.526)" fill="#eb7099" stroke="#eb7099" stroke-width="0.5"/>
      <rect id="Rectangle_1491" data-name="Rectangle 1491" width="17.177" height="0.537" transform="translate(3.892 29.523)" fill="#eb7099" stroke="#eb7099" stroke-width="0.5"/>
    </g>
    <rect id="Rectangle_1492" data-name="Rectangle 1492" width="17.177" height="0.537" transform="translate(3.892 32.565)" fill="#eb7099" stroke="#eb7099" stroke-width="0.5"/>
  </g>
</svg>
