<svg id="noun_event_2479032" xmlns="http://www.w3.org/2000/svg" width="36.96" height="37" viewBox="0 0 36.96 37">
  <path id="Tracé_122" data-name="Tracé 122" d="M8.429,36.82H22.037a8.887,8.887,0,0,1-.576-1.768H8.429a1.605,1.605,0,0,1-1.6-1.6V15.442H35.11V21.4a8.887,8.887,0,0,1,1.768.576V11.5a3.386,3.386,0,0,0-3.371-3.371H30.67v-2.3A.825.825,0,0,0,29.848,5h-.041a.825.825,0,0,0-.822.822V8.083H12.992V5.822A.825.825,0,0,0,12.17,5h-.041a.825.825,0,0,0-.822.822V8.083H8.47A3.386,3.386,0,0,0,5.1,11.454h0V33.408a3.36,3.36,0,0,0,3.33,3.412ZM28.943,9.892v.863a.825.825,0,0,0,.822.822h.041a.825.825,0,0,0,.822-.822h0V9.892a1.942,1.942,0,1,1-1.686,0Zm-17.678,0v.863a.825.825,0,0,0,.822.822h.041a.825.825,0,0,0,.822-.822V9.892a1.9,1.9,0,1,1-2.549.863,1.762,1.762,0,0,1,.863-.863Z" transform="translate(-5.098 -5)" fill="#eb7099"/>
  <path id="Tracé_123" data-name="Tracé 123" d="M57.82,48.1a9.641,9.641,0,1,0,9.62,9.661A9.632,9.632,0,0,0,57.82,48.1Zm0,17.226a7.564,7.564,0,1,1,7.564-7.564A7.571,7.571,0,0,1,57.82,65.326Z" transform="translate(-30.48 -30.381)" fill="#eb7099"/>
  <path id="Tracé_124" data-name="Tracé 124" d="M73.974,61.58H71.056V57.428a1.028,1.028,0,0,0-2.056,0v5.221a1.018,1.018,0,0,0,1.028,1.028h3.947A1.018,1.018,0,0,0,75,62.649,1.053,1.053,0,0,0,73.974,61.58Z" transform="translate(-42.729 -35.269)" fill="#eb7099"/>
  <path id="Tracé_125" data-name="Tracé 125" d="M23.2,39.564,21.6,35.7l-1.6,3.864-4.193.329,3.166,2.754-.946,4.07L21.6,44.539l3.577,2.179-.946-4.07,3.166-2.754Z" transform="translate(-11.4 -23.079)" fill="#eb7099"/>
</svg>
