<svg id="Groupe_1" data-name="Groupe 1" xmlns="http://www.w3.org/2000/svg" width="100" height="100" viewBox="0 0 100 100">
  <rect id="Rectangle_1" data-name="Rectangle 1" width="100" height="100" fill="#cfe6d8"/>
  <g id="Calque_2_1_" transform="translate(-27.321 -64.82)">
    <g id="LOGO" transform="translate(35.098 84.5)">
      <path id="Tracé_1" data-name="Tracé 1" d="M120.037,91.722a4.55,4.55,0,0,0-1.622-5.024c-1.151-.942-5.6-3.559-14.13,1.518a16.02,16.02,0,0,0-4.448,3.925,46.893,46.893,0,0,1-4.815-2.512c-4.4-2.512-9-5.129-17.322-5.129s-12.926,2.617-17.375,5.129a46.893,46.893,0,0,1-4.815,2.512,17.65,17.65,0,0,0-4.448-3.925c-8.53-5.076-12.979-2.407-14.13-1.518a4.55,4.55,0,0,0-1.622,5.024c.89,2.669,4.03,4.344,8.373,4.553a27.9,27.9,0,0,0,11.147-1.622c4.553,6.594,6.071,17.165,7.431,26.742C64.04,134.008,65.767,145.94,74.4,145.94a5.371,5.371,0,0,0,3.3-1.151A5.716,5.716,0,0,0,81,145.94c8.635,0,10.362-11.932,12.141-24.544,1.361-9.577,2.878-20.148,7.431-26.742a27.762,27.762,0,0,0,11.147,1.622C116.007,96.118,119.147,94.391,120.037,91.722Zm-76.3,2.46c-4.03-.157-5.966-1.727-6.437-3.088a2.434,2.434,0,0,1,.942-2.721A5.8,5.8,0,0,1,41.8,87.326c2.093,0,4.815.733,8.164,2.721a14.267,14.267,0,0,1,3.454,2.931A26.229,26.229,0,0,1,43.734,94.182ZM71.89,116.894c0-10.519,2.355-17.9,5.809-17.9s5.757,7.327,5.757,17.793a64.892,64.892,0,0,1-2.564,18.631A19.64,19.64,0,0,1,77.7,141.91C74.559,138.142,71.89,128.983,71.89,116.894Zm19.154,4.239C89.317,133.327,87.8,143.846,81,143.846a3.343,3.343,0,0,1-1.727-.523A21.071,21.071,0,0,0,82.88,136.1a65.612,65.612,0,0,0,2.669-19.259c0-4.658-.576-19.887-7.85-19.887-1.884,0-4.448,1.1-6.175,6.437A46.429,46.429,0,0,0,69.8,116.947a67.03,67.03,0,0,0,2.669,19.206,21.522,21.522,0,0,0,3.611,7.222,3.343,3.343,0,0,1-1.727.523c-6.8,0-8.321-10.519-10.048-22.713-1.413-9.682-2.931-20.305-7.536-27.318,1.622-.733,3.14-1.57,4.605-2.407,4.4-2.512,8.53-4.815,16.328-4.815S89.631,89,94.027,91.46a47.46,47.46,0,0,0,4.605,2.407C93.922,100.88,92.4,111.5,91.044,121.133Zm10.833-28.208A14.266,14.266,0,0,1,105.331,90c5.861-3.506,9.891-3.14,11.723-1.675A2.515,2.515,0,0,1,118,91.042c-.471,1.413-2.407,2.931-6.437,3.088A24.442,24.442,0,0,1,101.877,92.926Z" transform="translate(-35.098 -84.5)" fill="#ec6787"/>
    </g>
  </g>
</svg>
