<svg xmlns="http://www.w3.org/2000/svg" width="26.724" height="37.5" viewBox="0 0 26.724 37.5">
  <defs>
    <style>
      .cls-1 {
        fill: #eb7099;
        stroke: #eb7099;
        stroke-width: 0.5px;
      }
    </style>
  </defs>
  <path id="Tracé_125" data-name="Tracé 125" class="cls-1" d="M31.355,959.856a1.885,1.885,0,0,0-1.877,1.877,1.781,1.781,0,0,0,.054.422H27.778a.261.261,0,0,0-.218.122l-1.523,2.3h-5.9a.261.261,0,0,0-.258.259v28.2a.261.261,0,0,0,.258.259H37.6a4.282,4.282,0,1,0,5.332-4.87V964.834a.261.261,0,0,0-.259-.261l-5.917-.014-1.523-2.285a.261.261,0,0,0-.218-.122H33.178a1.782,1.782,0,0,0,.041-.422,1.874,1.874,0,0,0-1.863-1.877Zm0,.517a1.355,1.355,0,0,1,1.224,1.918l-.014.014a1.415,1.415,0,0,1-.1.163s0,.01,0,.014a1.359,1.359,0,0,1-.109.136c-.019.022-.034.048-.054.068s-.047.036-.068.054a1.335,1.335,0,0,1-.136.109l-.041.027a1.35,1.35,0,0,1-.15.082c-.013.006-.028.008-.041.014a1.263,1.263,0,0,1-.231.068c-.006,0-.008.012-.014.014-.022,0-.045.01-.068.014a1.422,1.422,0,0,1-.2.014,1.338,1.338,0,0,1-.272-.027c-.01,0-.017-.011-.027-.014a1.236,1.236,0,0,1-.19-.054c-.023-.009-.046-.017-.068-.027-.006,0-.008-.011-.014-.014a1.347,1.347,0,0,1-.15-.082,1.4,1.4,0,0,1-.49-.558.26.26,0,0,0-.041-.041,1.358,1.358,0,0,1,1.251-1.891Zm-3.441,2.312h1.823a1.9,1.9,0,0,0,1.619.925,1.86,1.86,0,0,0,1.591-.925h1.931l1.483,2.2a.262.262,0,0,0,.041.082L37.748,967H25.058l1.333-2.013a.258.258,0,0,0,.027-.054l1.5-2.244Zm9.195,2.394,5.3.014v23.219a4.633,4.633,0,0,0-1.877.149,4.2,4.2,0,0,0-.762.326,4.395,4.395,0,0,0-.694.462c-.1.085-.2.177-.3.272a4.271,4.271,0,0,0-1.265,3.033c0,.079.007.143.014.218H20.392v-27.68h5.291l-1.333,2.013a.26.26,0,0,0-.027.041s0,.009,0,.014,0,.009,0,.014,0,.009,0,.014a.261.261,0,0,0,0,.163s0,.009,0,.014a.259.259,0,0,0,.041.054s0,.009,0,.014a.262.262,0,0,0,.109.068.2.2,0,0,0,.1.013h13.67a.262.262,0,0,0,.054,0l.027-.014h.014a.258.258,0,0,0,.068-.041.249.249,0,0,0,.027-.027l.014-.014a.44.44,0,0,0,.054-.1s0-.009,0-.014,0-.009,0-.014,0-.009,0-.014,0-.009,0-.014,0-.009,0-.014,0-.009,0-.014,0-.009,0-.014,0-.009,0-.014,0-.009,0-.014a.265.265,0,0,0-.014-.027.258.258,0,0,0-.014-.041s0-.009,0-.014l-.014-.014-1.347-2.027Zm-13.031,6.338a.268.268,0,0,0,.082.531H38.646a.265.265,0,0,0,0-.531H24.16a.261.261,0,0,0-.054,0h-.027Zm0,4.135a.262.262,0,0,0,.082.517H38.646a.261.261,0,1,0,0-.517H24.16a.27.27,0,0,0-.054,0Zm-.027,4.135a.264.264,0,0,0,.109.517H38.646a.261.261,0,1,0,0-.517H24.16a.261.261,0,0,0-.082,0h-.027Zm.054,4.121a.267.267,0,0,0,.054.531H38.646a.265.265,0,0,0,0-.531H24.16A.27.27,0,0,0,24.105,983.809Zm0,4.135a.267.267,0,1,0,.054.53H38.646a.265.265,0,1,0,0-.53H24.105Zm17.71.843a3.736,3.736,0,0,1,.762.082c.014,0,.027.01.041.013s.037,0,.054,0a3.776,3.776,0,1,1-4.6,4.162.263.263,0,0,0,0-.027s0-.009,0-.014c0-.024-.011-.044-.014-.068,0-.045,0-.09,0-.136-.005-.083-.014-.161-.014-.245a3.746,3.746,0,0,1,.449-1.8,3.8,3.8,0,0,1,.653-.87,3.9,3.9,0,0,1,.558-.462c.1-.066.2-.134.3-.191s.227-.1.34-.15a3.778,3.778,0,0,1,1.469-.3Zm2.408,1.864-.027.013a.261.261,0,0,0-.1.068l-3.469,3.06-1.061-1.483a.261.261,0,1,0-.422.3l1.224,1.728a.261.261,0,0,0,.394.041l3.673-3.265a.261.261,0,0,0-.218-.462Z" transform="translate(-19.626 -959.603)"/>
</svg>
