<svg width="23" height="21" viewBox="0 0 23 21" fill="none" xmlns="http://www.w3.org/2000/svg">
<path fill-rule="evenodd" clip-rule="evenodd" d="M20.741 2.25901C20.1911 1.7019 19.5361 1.25955 18.8139 0.957631C18.0917 0.655714 17.3168 0.500244 16.534 0.500244C15.7512 0.500244 14.9763 0.655714 14.2541 0.957631C13.5319 1.25955 12.8769 1.7019 12.327 2.25901L11.499 3.08701L10.675 2.25901C9.55897 1.14298 8.04531 0.515997 6.467 0.515997C4.8887 0.515997 3.37503 1.14298 2.259 2.25901C1.14297 3.37504 0.515991 4.8887 0.515991 6.46701C0.515991 8.04531 1.14297 9.55898 2.259 10.675L11.5 19.916L20.741 10.675C21.2981 10.1251 21.7405 9.47012 22.0424 8.74792C22.3443 8.02573 22.4998 7.25077 22.4998 6.46801C22.4998 5.68525 22.3443 4.91028 22.0424 4.18809C21.7405 3.4659 21.2981 2.81086 20.741 2.26101" fill="#EB7099"/>
<path d="M20.741 2.25901C20.1911 1.7019 19.5361 1.25955 18.8139 0.957631C18.0917 0.655714 17.3168 0.500244 16.534 0.500244C15.7512 0.500244 14.9763 0.655714 14.2541 0.957631C13.5319 1.25955 12.8769 1.7019 12.327 2.25901L11.499 3.08701L10.675 2.25901C9.55897 1.14298 8.04531 0.515997 6.467 0.515997C4.8887 0.515997 3.37503 1.14298 2.259 2.25901C1.14297 3.37504 0.515991 4.8887 0.515991 6.46701C0.515991 8.04531 1.14297 9.55898 2.259 10.675L11.5 19.916L20.741 10.675C21.2981 10.1251 21.7405 9.47012 22.0424 8.74792C22.3443 8.02573 22.4998 7.25077 22.4998 6.46801C22.4998 5.68525 22.3443 4.91028 22.0424 4.18809C21.7405 3.4659 21.2981 2.81086 20.741 2.26101" stroke="#EB7099"/>
</svg>
