<svg id="LOGO" xmlns="http://www.w3.org/2000/svg" width="45.737" height="33.45" viewBox="0 0 45.737 33.45">
  <g id="LOGO-2" data-name="LOGO" transform="translate(0)">
    <path id="Tracé_1" data-name="Tracé 1" d="M45.637,3.936a2.482,2.482,0,0,0-.86-2.726c-.618-.5-3-1.94-7.588.817a9.03,9.03,0,0,0-2.4,2.122,27.976,27.976,0,0,1-2.583-1.37,17.008,17.008,0,0,0-18.636,0,27.831,27.831,0,0,1-2.6,1.373,8.988,8.988,0,0,0-2.4-2.125C3.992-.729,1.611.706.993,1.21a2.482,2.482,0,0,0-.86,2.726C.6,5.388,2.283,6.311,4.63,6.408A14.865,14.865,0,0,0,10.6,5.537c2.448,3.6,3.26,9.353,4,14.565.97,6.864,1.889,13.349,6.52,13.349a2.948,2.948,0,0,0,1.773-.615,2.934,2.934,0,0,0,1.771.615c4.632,0,5.551-6.485,6.52-13.349.739-5.215,1.551-10.968,4-14.568a14.743,14.743,0,0,0,5.975.874C43.487,6.311,45.165,5.388,45.637,3.936ZM4.663,5.269C2.488,5.181,1.448,4.338,1.2,3.577A1.337,1.337,0,0,1,1.7,2.1a3,3,0,0,1,1.914-.57,8.816,8.816,0,0,1,4.4,1.484A7.8,7.8,0,0,1,9.871,4.594a13.854,13.854,0,0,1-5.208.675ZM19.792,17.638C19.792,11.9,21.068,7.9,22.9,7.9s3.092,3.987,3.092,9.683A35.342,35.342,0,0,1,24.6,27.72a10.9,10.9,0,0,1-1.7,3.523C21.206,29.184,19.792,24.208,19.792,17.638Zm10.272,2.3c-.939,6.636-1.748,12.369-5.407,12.369a1.746,1.746,0,0,1-.922-.285,11.716,11.716,0,0,0,1.942-3.942A36.542,36.542,0,0,0,27.119,17.6c0-2.54-.3-10.822-4.216-10.822-1,0-2.389.607-3.311,3.5a25.24,25.24,0,0,0-.919,7.376A36.43,36.43,0,0,0,20.11,28.1a11.849,11.849,0,0,0,1.945,3.942,1.793,1.793,0,0,1-.936.285c-3.654,0-4.469-5.733-5.407-12.369-.748-5.266-1.565-11.042-4.056-14.867a26.762,26.762,0,0,0,2.47-1.321A15.506,15.506,0,0,1,22.9,1.139a15.451,15.451,0,0,1,8.76,2.632c.787.453,1.582.911,2.459,1.319C31.624,8.914,30.806,14.69,30.064,19.936ZM35.9,4.588a7.735,7.735,0,0,1,1.863-1.581c3.151-1.894,5.326-1.709,6.31-.909a1.337,1.337,0,0,1,.495,1.478c-.247.76-1.284,1.6-3.463,1.692A13.846,13.846,0,0,1,35.9,4.588Z" transform="translate(-0.017)" fill="#ec6787"/>
  </g>
</svg>
