<svg id="LOGO" xmlns="http://www.w3.org/2000/svg" width="201.9" height="45.55" viewBox="0 0 201.9 45.55">
  <g id="LOGO-2" data-name="LOGO">
    <path id="Tracé_87" data-name="Tracé 87" d="M157.775,51.828a.717.717,0,0,0-.252-1.067.648.648,0,0,0-1,.252,5.819,5.819,0,0,1-9.083,1.1,6.085,6.085,0,0,1-1.819-4.2h12.612a.8.8,0,0,0,.535-.186.644.644,0,0,0,.217-.5v-.124a7.791,7.791,0,0,0-2.35-5.1,7.074,7.074,0,0,0-5.131-2.055,6.981,6.981,0,0,0-5.208,2.261,7.842,7.842,0,0,0,0,10.859,7.287,7.287,0,0,0,8.846,1.3A7.446,7.446,0,0,0,157.775,51.828Zm-10.01-8.986a5.782,5.782,0,0,1,7.563,0,5.941,5.941,0,0,1,2.009,3.576H145.7a6.151,6.151,0,0,1,2.063-3.576Z" transform="translate(-88.225 -24.448)" fill="#cfe6d8"/>
    <path id="Tracé_88" data-name="Tracé 88" d="M254.592,50.87a3.467,3.467,0,0,0-1.726-3.029,11.127,11.127,0,0,0-3.735-1.257h-.062a7.524,7.524,0,0,1-3.138-1.067,1.993,1.993,0,0,1-.88-1.6,2.294,2.294,0,0,1,1.035-1.741,4.437,4.437,0,0,1,2.854-.834,4.289,4.289,0,0,1,1.443.268,6.877,6.877,0,0,1,1.163.5c.26.159.652.415,1.163.776a.748.748,0,0,0,.566.093.69.69,0,0,0,.469-.314.749.749,0,0,0,.093-.566.776.776,0,0,0-.314-.5c-.562-.357-1.008-.624-1.33-.8a8.327,8.327,0,0,0-1.4-.57,5.973,5.973,0,0,0-1.834-.3,6.5,6.5,0,0,0-3.766,1.035,3.62,3.62,0,0,0-1.66,3.013,3.041,3.041,0,0,0,1.66,2.761,8.845,8.845,0,0,0,3.49,1.191l.066.031a7.3,7.3,0,0,1,3.308,1.194,2.42,2.42,0,0,1,1.035,1.865,2.236,2.236,0,0,1-1.144,1.834,4.892,4.892,0,0,1-3.169.942,7.806,7.806,0,0,1-4.456-1.788.725.725,0,0,0-.566-.19.69.69,0,0,0-.5.283.644.644,0,0,0,.093,1,9.176,9.176,0,0,0,5.678,2.2,6.353,6.353,0,0,0,3.878-1.272A3.82,3.82,0,0,0,254.592,50.87Z" transform="translate(-148.8 -24.443)" fill="#cfe6d8"/>
    <path id="Tracé_89" data-name="Tracé 89" d="M295.256,40.661c0-.388-.221-.617-.659-.721h-.19a.279.279,0,0,0-.093.031h-.062q-.314.093-.314.221a1.137,1.137,0,0,1-.124.155.488.488,0,0,0-.066.314v8.346a4.654,4.654,0,0,1-1.431,3.366,4.724,4.724,0,0,1-8.063-3.359V40.661a.667.667,0,0,0-.221-.516.748.748,0,0,0-.531-.206.776.776,0,0,0-.535.206.667.667,0,0,0-.217.516v8.346a6.031,6.031,0,0,0,1.819,4.41,6.143,6.143,0,0,0,4.518,1.85,5.938,5.938,0,0,0,4.654-2.18v1a5.554,5.554,0,0,1-1.726,4.049,5.736,5.736,0,0,1-6.593,1.067.776.776,0,0,0-.989.388.7.7,0,0,0,.33.989,7.687,7.687,0,0,0,3.165.71,7.113,7.113,0,0,0,5.177-2.1,6.927,6.927,0,0,0,2.152-5.1Z" transform="translate(-173.098 -24.45)" fill="#cfe6d8"/>
    <path id="Tracé_90" data-name="Tracé 90" d="M351.049,51.828a.717.717,0,0,0-.248-1.067.648.648,0,0,0-1,.252,5.805,5.805,0,0,1-9.075,1.1,6.116,6.116,0,0,1-1.85-4.2h12.616a.8.8,0,0,0,.531-.186.632.632,0,0,0,.221-.5v-.124a7.811,7.811,0,0,0-2.354-5.1,7.062,7.062,0,0,0-5.131-2.055,6.981,6.981,0,0,0-5.2,2.261,7.853,7.853,0,0,0,0,10.859,7.3,7.3,0,0,0,8.85,1.3A7.4,7.4,0,0,0,351.049,51.828Zm-10.01-8.986a5.782,5.782,0,0,1,7.563.016,5.922,5.922,0,0,1,2.009,3.576H338.976A6.205,6.205,0,0,1,341.039,42.842Z" transform="translate(-206.54 -24.448)" fill="#cfe6d8"/>
    <path id="Tracé_91" data-name="Tracé 91" d="M490.348,55.291a6.806,6.806,0,0,0,5.146-2.277,7.952,7.952,0,0,0,0-10.84,6.954,6.954,0,0,0-10.293,0,7.952,7.952,0,0,0,0,10.84A6.806,6.806,0,0,0,490.348,55.291Zm-4.064-12.081a5.43,5.43,0,0,1,8.144,0,6.453,6.453,0,0,1,0,8.753,5.449,5.449,0,0,1-8.144,0,6.453,6.453,0,0,1,0-8.753Z" transform="translate(-295.728 -24.424)" fill="#cfe6d8"/>
    <path id="Tracé_92" data-name="Tracé 92" d="M204.887,52.279v2.288a.741.741,0,0,0,.217.535.729.729,0,0,0,.535.221.714.714,0,0,0,.531-.221.729.729,0,0,0,.221-.535V47.633a7.629,7.629,0,0,0-1.551-4.708c-.116-.155-.24-.3-.365-.446-.066-.074-.128-.151-.2-.225a7.438,7.438,0,0,0-1.931-1.509,6.733,6.733,0,0,0-2.234-.737l-.175-.027h-.229a6.088,6.088,0,0,0-.609-.031,4,4,0,0,0-.609.031h-.229l-.175.027a6.783,6.783,0,0,0-2.238.737,7.481,7.481,0,0,0-1.939,1.493c-.07.074-.132.151-.2.225-.124.147-.248.291-.365.446a7.964,7.964,0,0,0-.047,9.381v-.027a7.326,7.326,0,0,0,2.525,2.226,6.729,6.729,0,0,0,2.222.737l.19.031.229.019c.2,0,.388.031.609.031a3.879,3.879,0,0,0,.609-.031l.229-.019.186-.031a6.671,6.671,0,0,0,2.222-.737,7.3,7.3,0,0,0,2.564-2.211Zm-5.759,1.551H199.1a5.383,5.383,0,0,1-4.064-1.8,6.518,6.518,0,0,1,0-8.769,5.36,5.36,0,0,1,4.064-1.823h.031a5.36,5.36,0,0,1,4.064,1.823,6.518,6.518,0,0,1,0,8.769,5.383,5.383,0,0,1-4.064,1.788Z" transform="translate(-117.42 -24.456)" fill="#cfe6d8"/>
    <path id="Tracé_93" data-name="Tracé 93" d="M446.241,37.272V23.733a.756.756,0,0,0-.752-.733.748.748,0,0,0-.752.752v8.866a.389.389,0,0,1-.031-.043h0a7.756,7.756,0,0,0-2.575-2.207,6.981,6.981,0,0,0-2.191-.725c-.093,0-.182-.031-.275-.039h-.229c-.206-.019-.415-.031-.628-.031a4.289,4.289,0,0,0-.632.031h-.229a2.24,2.24,0,0,0-.275.039,7.008,7.008,0,0,0-2.18.725,7.73,7.73,0,0,0-2.571,2.2h0a7.909,7.909,0,0,0,0,9.409c.136.182.283.349.434.516.043.05.081.1.128.147a7.45,7.45,0,0,0,2.009,1.5,6.884,6.884,0,0,0,2.009.686c.155.027.31.05.469.066l.209.019c.209,0,.423.031.64.031a4.394,4.394,0,0,0,.64-.031l.206-.019a2.734,2.734,0,0,0,.469-.066,6.884,6.884,0,0,0,2.009-.686,7.45,7.45,0,0,0,1.993-1.5c.047-.047.085-.1.132-.147.147-.167.295-.334.43-.516A7.524,7.524,0,0,0,446.241,37.272Zm-1.571.667a2.953,2.953,0,0,1-.066.493.223.223,0,0,1-.019.112c-.031.163-.07.322-.112.477l-.023.093c-.05.167-.109.334-.171.5a.265.265,0,0,0,0,.039,6.038,6.038,0,0,1-1.365,2.048,5.689,5.689,0,0,1-2.249,1.416c-.047,0-.089.035-.136.047a1.975,1.975,0,0,1-.217.054c-.116.031-.229.066-.349.089h0a5.864,5.864,0,0,1-1.117.1h-.031a5.876,5.876,0,0,1-1.121-.1h0c-.116-.023-.233-.058-.349-.089s-.143-.031-.217-.054L437,43.113a5.7,5.7,0,0,1-2.28-1.416,6.038,6.038,0,0,1-1.365-2.048v-.039c-.062-.163-.12-.33-.171-.5l-.023-.093c-.043-.155-.081-.314-.112-.477a.238.238,0,0,0-.019-.112c-.027-.159-.05-.326-.066-.493v-.093a1.361,1.361,0,0,0-.023-.306v-.5a1.3,1.3,0,0,1,.019-.275.672.672,0,0,0,0-.2,3.413,3.413,0,0,1,.05-.349c.019-.116.027-.182.043-.268s.047-.206.074-.306.043-.175.07-.264.074-.221.112-.33.047-.132.074-.2c.058-.14.124-.279.19-.415,0-.027.027-.058.043-.085a6.105,6.105,0,0,1,1.105-1.516,5.693,5.693,0,0,1,2.226-1.419l.163-.058.19-.05a5.748,5.748,0,0,1,1.5-.2h.031a5.739,5.739,0,0,1,1.5.2l.19.05.163.058a5.693,5.693,0,0,1,2.226,1.419,6.1,6.1,0,0,1,1.121,1.516l.043.085c.07.136.132.275.19.415.027.066.05.132.074.2s.081.221.112.33.05.178.074.264.05.2.07.306l.047.268c0,.116.035.233.047.349a1.083,1.083,0,0,1,0,.2c0,.066.019.182.023.275v.5c0,.1-.019.2-.027.306A.764.764,0,0,1,444.671,37.939Z" transform="translate(-264.079 -14.08)" fill="#cfe6d8"/>
    <path id="Tracé_94" data-name="Tracé 94" d="M399.467,54.611V46.265a6,6,0,0,0-1.834-4.406,6.205,6.205,0,0,0-8.815,0A6,6,0,0,0,387,46.265v8.346a.756.756,0,0,0,.752.776.741.741,0,0,0,.411-.12.039.039,0,0,0,.019,0l.054-.043a.923.923,0,0,0,.24-.45V46.265a5.041,5.041,0,0,1,.2-1.272,4.619,4.619,0,0,1,1.214-2.067,4.518,4.518,0,0,1,3.339-1.4h.031a4.53,4.53,0,0,1,3.343,1.4,4.619,4.619,0,0,1,1.214,2.067,5.221,5.221,0,0,1,.2,1.272v8.486a.923.923,0,0,0,.24.45l.054.043h0a.752.752,0,0,0,.411.12.729.729,0,0,0,.535-.221A.741.741,0,0,0,399.467,54.611Z" transform="translate(-236.917 -24.501)" fill="#cfe6d8"/>
    <path id="Tracé_95" data-name="Tracé 95" d="M149.1,103.065a1.621,1.621,0,0,0-.776-.206h0a1.939,1.939,0,0,0-.694.163,1.76,1.76,0,0,0-.361.237,1.939,1.939,0,0,0-.33.438,2,2,0,0,0-.279-.438,1.074,1.074,0,0,0-.462-.291,1.625,1.625,0,0,0-.582-.109,1.319,1.319,0,0,0-.683.167,1.668,1.668,0,0,0-.589.535,2.327,2.327,0,0,0-.334,1.163v2.133h.582v-1.664a2.955,2.955,0,0,1,.109-1.105,1.067,1.067,0,0,1,.365-.5.95.95,0,0,1,.558-.163.892.892,0,0,1,.5.136,1.338,1.338,0,0,1,.349.388,1.912,1.912,0,0,1,.147.908v2h.586v-1.974a2.292,2.292,0,0,1,.225-.931,1.268,1.268,0,0,1,.923-.524.857.857,0,0,1,.485.132.714.714,0,0,1,.279.345,2.758,2.758,0,0,1,.081.822v2.129h.6v-2.129a3.033,3.033,0,0,0-.151-1.09A1.129,1.129,0,0,0,149.1,103.065Z" transform="translate(-88.166 -62.967)" fill="#cfe6d8"/>
    <rect id="Rectangle_1462" data-name="Rectangle 1462" width="0.586" height="3.905" transform="translate(64.078 39.989)" fill="#cfe6d8"/>
    <path id="Tracé_96" data-name="Tracé 96" d="M165.284,99.068a.45.45,0,0,0-.454.45.458.458,0,0,0,.454.454.434.434,0,0,0,.318-.136.45.45,0,0,0-.318-.776Z" transform="translate(-100.911 -60.642)" fill="#cfe6d8"/>
    <path id="Tracé_97" data-name="Tracé 97" d="M176.809,104.674a2.125,2.125,0,0,0-.427-1.33,1.939,1.939,0,0,0-1.59-.776,1.865,1.865,0,0,0-1.551.741,2.129,2.129,0,0,0,.081,2.715,1.869,1.869,0,0,0,1.489.628,2.176,2.176,0,0,0,.776-.132,1.939,1.939,0,0,0,.617-.388,2.241,2.241,0,0,0,.477-.659l.019-.043-.493-.26-.023.039a2.183,2.183,0,0,1-.388.527,1.443,1.443,0,0,1-.454.264,1.552,1.552,0,0,1-.547.1,1.3,1.3,0,0,1-.977-.411,1.5,1.5,0,0,1-.388-1.008h3.417Zm-3.351-.469a1.551,1.551,0,0,1,.407-.706,1.369,1.369,0,0,1,.931-.345,1.47,1.47,0,0,1,.628.14,1.276,1.276,0,0,1,.481.365,1.594,1.594,0,0,1,.26.547Z" transform="translate(-105.785 -62.789)" fill="#cfe6d8"/>
    <path id="Tracé_98" data-name="Tracé 98" d="M192.024,104.676a3.622,3.622,0,0,1-.074.915.958.958,0,0,1-.388.5,1.121,1.121,0,0,1-.667.19,1.164,1.164,0,0,1-.679-.194.954.954,0,0,1-.388-.527,3.936,3.936,0,0,1-.066-.88v-1.827h-.589v1.881a3.157,3.157,0,0,0,.186,1.237,1.435,1.435,0,0,0,.574.648,1.823,1.823,0,0,0,.954.233,1.788,1.788,0,0,0,.95-.233,1.482,1.482,0,0,0,.574-.64,3.029,3.029,0,0,0,.19-1.206V102.83H192Z" transform="translate(-115.812 -62.95)" fill="#cfe6d8"/>
    <path id="Tracé_99" data-name="Tracé 99" d="M206.681,103.11h-.71l-.981,1.377-.985-1.377H203.3l1.338,1.858-1.478,2.048h.706l1.125-1.567L206.115,107l.016.019h.714l-1.5-2.048Z" transform="translate(-124.376 -63.121)" fill="#cfe6d8"/>
    <path id="Tracé_100" data-name="Tracé 100" d="M225.389,105.829l-1.229-2.672-.016-.027h-.624L225.3,107l.012.031h.147l1.788-3.905h-.632Z" transform="translate(-136.84 -63.134)" fill="#cfe6d8"/>
    <rect id="Rectangle_1463" data-name="Rectangle 1463" width="0.586" height="3.905" transform="translate(92.567 39.989)" fill="#cfe6d8"/>
    <path id="Tracé_101" data-name="Tracé 101" d="M238.74,99.08a.43.43,0,0,0-.318.132.423.423,0,0,0-.132.318.458.458,0,0,0,.45.454.442.442,0,0,0,.322-.136.45.45,0,0,0,0-.636A.438.438,0,0,0,238.74,99.08Z" transform="translate(-145.881 -60.654)" fill="#cfe6d8"/>
    <path id="Tracé_102" data-name="Tracé 102" d="M247.589,105.829l-1.229-2.672-.016-.027h-.624L247.5,107l.012.031h.147l1.788-3.905h-.628Z" transform="translate(-150.43 -63.134)" fill="#cfe6d8"/>
    <path id="Tracé_103" data-name="Tracé 103" d="M262.144,102.84a1.346,1.346,0,0,0-.71.287,1.939,1.939,0,0,0-.667.892,2.187,2.187,0,0,0-.167.582v2.242h.6v-1.334a5.322,5.322,0,0,1,.089-1.2,1.625,1.625,0,0,1,.427-.652.547.547,0,0,1,.589-.182h.039l.3-.489-.043-.023A.915.915,0,0,0,262.144,102.84Z" transform="translate(-159.539 -62.956)" fill="#cfe6d8"/>
    <path id="Tracé_104" data-name="Tracé 104" d="M273.995,104.674a2.079,2.079,0,0,0-.427-1.33,1.939,1.939,0,0,0-1.586-.776,1.869,1.869,0,0,0-1.551.741,2.129,2.129,0,0,0,.081,2.715,1.881,1.881,0,0,0,1.493.628,2.207,2.207,0,0,0,.776-.132,1.966,1.966,0,0,0,.613-.388,2.242,2.242,0,0,0,.477-.659l.019-.043-.489-.26-.027.039a2.09,2.09,0,0,1-.407.527,1.466,1.466,0,0,1-.45.264,1.586,1.586,0,0,1-.551.1,1.288,1.288,0,0,1-.973-.411,1.489,1.489,0,0,1-.411-1.008H274Zm-3.347-.469a1.551,1.551,0,0,1,.407-.706,1.353,1.353,0,0,1,.927-.345,1.489,1.489,0,0,1,.632.14,1.264,1.264,0,0,1,.477.365,1.528,1.528,0,0,1,.26.547Z" transform="translate(-165.282 -62.789)" fill="#cfe6d8"/>
    <path id="Tracé_105" data-name="Tracé 105" d="M298.448,103.064a1.621,1.621,0,0,0-.776-.206h0a1.893,1.893,0,0,0-.69.163,1.69,1.69,0,0,0-.365.237,2.045,2.045,0,0,0-.33.438,1.864,1.864,0,0,0-.279-.438,1.074,1.074,0,0,0-.462-.291,1.621,1.621,0,0,0-.578-.109,1.322,1.322,0,0,0-.686.167,1.7,1.7,0,0,0-.589.535,2.362,2.362,0,0,0-.334,1.163v2.133h.582v-1.664a2.956,2.956,0,0,1,.109-1.105,1.094,1.094,0,0,1,.365-.5.95.95,0,0,1,.558-.163.884.884,0,0,1,.5.136,1.338,1.338,0,0,1,.349.388,1.912,1.912,0,0,1,.147.908v2h.586v-1.974a2.292,2.292,0,0,1,.225-.931,1.268,1.268,0,0,1,.923-.524.846.846,0,0,1,.485.132.714.714,0,0,1,.279.345,2.757,2.757,0,0,1,.081.822v2.129h.6v-2.129a3.032,3.032,0,0,0-.151-1.09,1.128,1.128,0,0,0-.547-.578Z" transform="translate(-179.594 -62.967)" fill="#cfe6d8"/>
    <path id="Tracé_106" data-name="Tracé 106" d="M316.342,102.629a1.939,1.939,0,0,0-1.5.655,2.056,2.056,0,0,0-.535,1.4,2.024,2.024,0,0,0,.566,1.423,2.055,2.055,0,0,0,2.928,0,2.025,2.025,0,0,0,.566-1.423,2.056,2.056,0,0,0-.535-1.408A1.939,1.939,0,0,0,316.342,102.629Zm.721,3.351a1.489,1.489,0,0,1-1.443,0,1.354,1.354,0,0,1-.52-.535,1.516,1.516,0,0,1-.194-.748,1.474,1.474,0,0,1,.423-1.055,1.385,1.385,0,0,1,2.021,0,1.474,1.474,0,0,1,.423,1.055,1.551,1.551,0,0,1-.19.749A1.354,1.354,0,0,1,317.063,105.98Z" transform="translate(-192.419 -62.827)" fill="#cfe6d8"/>
    <path id="Tracé_107" data-name="Tracé 107" d="M333.667,103.083a1.551,1.551,0,0,0-.822-.225,2.463,2.463,0,0,0-1.008.178,2.327,2.327,0,0,0-.524.427,1.865,1.865,0,0,0-.361,1,2.584,2.584,0,0,0-.027.516v1.881h.589v-1.443a5.394,5.394,0,0,1,.066-1.028h0a.721.721,0,0,1,.3-.659,1.264,1.264,0,0,1,.776-.244,1.462,1.462,0,0,1,.733.147.776.776,0,0,1,.322.508,4.208,4.208,0,0,1,.054.869v1.865h.586v-2.024a3.1,3.1,0,0,0-.163-1.163A1.253,1.253,0,0,0,333.667,103.083Z" transform="translate(-202.589 -62.966)" fill="#cfe6d8"/>
    <path id="Tracé_108" data-name="Tracé 108" d="M356.659,104.674a2.079,2.079,0,0,0-.427-1.33,1.939,1.939,0,0,0-1.59-.776,1.865,1.865,0,0,0-1.551.741,2.129,2.129,0,0,0,.081,2.715,1.877,1.877,0,0,0,1.493.628,2.168,2.168,0,0,0,.776-.132,1.939,1.939,0,0,0,.617-.388,2.241,2.241,0,0,0,.477-.659l.019-.043-.489-.26-.027.039a2.185,2.185,0,0,1-.407.527,1.443,1.443,0,0,1-.454.264,1.551,1.551,0,0,1-.547.1,1.288,1.288,0,0,1-.973-.411,1.489,1.489,0,0,1-.411-1.008h3.413Zm-3.347-.469a1.551,1.551,0,0,1,.407-.706,1.353,1.353,0,0,1,.927-.345,1.458,1.458,0,0,1,.628.14,1.249,1.249,0,0,1,.481.365,1.528,1.528,0,0,1,.26.547Z" transform="translate(-215.885 -62.789)" fill="#cfe6d8"/>
    <path id="Tracé_109" data-name="Tracé 109" d="M371.96,103.083a1.551,1.551,0,0,0-.822-.225,2.486,2.486,0,0,0-1.008.178,2.328,2.328,0,0,0-.524.427,1.866,1.866,0,0,0-.341.985,2.916,2.916,0,0,0-.027.516v1.881h.589V105.4a5.394,5.394,0,0,1,.066-1.028h0a.722.722,0,0,1,.3-.659,1.272,1.272,0,0,1,.776-.244,1.462,1.462,0,0,1,.733.147.776.776,0,0,1,.322.508,4.208,4.208,0,0,1,.054.869v1.865h.586v-2.009a3.1,3.1,0,0,0-.163-1.163,1.252,1.252,0,0,0-.543-.6Z" transform="translate(-226.043 -62.966)" fill="#cfe6d8"/>
    <path id="Tracé_110" data-name="Tracé 110" d="M387.948,101.124a1.953,1.953,0,0,0-2.893-.066,2.021,2.021,0,0,0-.586,1.454,2,2,0,0,0,.589,1.443,1.939,1.939,0,0,0,1.423.6,2.211,2.211,0,0,0,.892-.182,2.3,2.3,0,0,0,.776-.586,2.687,2.687,0,0,0,.388-1.047V99.08h-.582Zm-.155.605a1.578,1.578,0,0,1-.233,1.827,1.4,1.4,0,0,1-1.035.43,1.416,1.416,0,0,1-.733-.2,1.451,1.451,0,0,1-.535-.547,1.5,1.5,0,0,1,0-1.493,1.455,1.455,0,0,1,.539-.555,1.388,1.388,0,0,1,.717-.2,1.481,1.481,0,0,1,.741.2,1.365,1.365,0,0,1,.524.535Z" transform="translate(-235.369 -60.654)" fill="#cfe6d8"/>
    <path id="Tracé_111" data-name="Tracé 111" d="M402.978,102.629a1.939,1.939,0,0,0-1.493.655,2.09,2.09,0,0,0,.031,2.827,2.052,2.052,0,0,0,2.924,0,2.083,2.083,0,0,0,.031-2.831,1.939,1.939,0,0,0-1.493-.652Zm.725,3.351a1.443,1.443,0,0,1-.725.186,1.423,1.423,0,0,1-.717-.186,1.353,1.353,0,0,1-.52-.535,1.478,1.478,0,0,1-.194-.748,1.458,1.458,0,0,1,.423-1.055,1.385,1.385,0,0,1,2.021,0,1.474,1.474,0,0,1,.423,1.055,1.529,1.529,0,0,1-.194.748A1.318,1.318,0,0,1,403.7,105.98Z" transform="translate(-245.458 -62.827)" fill="#cfe6d8"/>
    <path id="Tracé_112" data-name="Tracé 112" d="M422.748,103.064a1.621,1.621,0,0,0-.776-.206h0a1.893,1.893,0,0,0-.69.163,1.691,1.691,0,0,0-.365.237,2.044,2.044,0,0,0-.33.438,1.864,1.864,0,0,0-.279-.438,1.074,1.074,0,0,0-.462-.291,1.621,1.621,0,0,0-.578-.109,1.322,1.322,0,0,0-.686.167,1.667,1.667,0,0,0-.59.535,2.362,2.362,0,0,0-.333,1.163v2.133h.582v-1.664a2.955,2.955,0,0,1,.109-1.105,1.094,1.094,0,0,1,.365-.5.95.95,0,0,1,.558-.163.884.884,0,0,1,.5.136,1.338,1.338,0,0,1,.349.388,1.912,1.912,0,0,1,.147.908v2h.586v-1.974a2.292,2.292,0,0,1,.225-.931,1.268,1.268,0,0,1,.923-.524.846.846,0,0,1,.485.132.714.714,0,0,1,.279.345,2.758,2.758,0,0,1,.081.822v2.129h.6v-2.129a3.032,3.032,0,0,0-.151-1.09,1.129,1.129,0,0,0-.547-.578Z" transform="translate(-255.688 -62.967)" fill="#cfe6d8"/>
    <path id="Tracé_113" data-name="Tracé 113" d="M443.05,98.28l-.83,1.171h.6l1.125-1.171Z" transform="translate(-270.723 -60.165)" fill="#cfe6d8"/>
    <path id="Tracé_114" data-name="Tracé 114" d="M442.659,104.674a2.079,2.079,0,0,0-.427-1.33,1.939,1.939,0,0,0-1.59-.776,1.865,1.865,0,0,0-1.551.741,2.129,2.129,0,0,0,.081,2.715,1.877,1.877,0,0,0,1.493.628,2.168,2.168,0,0,0,.776-.132,1.939,1.939,0,0,0,.617-.388,2.242,2.242,0,0,0,.477-.659l.019-.043-.493-.26-.023.039a2.182,2.182,0,0,1-.407.527,1.442,1.442,0,0,1-.454.264,1.551,1.551,0,0,1-.547.1,1.288,1.288,0,0,1-.973-.411,1.489,1.489,0,0,1-.411-1.008h3.413Zm-3.347-.469a1.551,1.551,0,0,1,.407-.706,1.353,1.353,0,0,1,.927-.345,1.458,1.458,0,0,1,.628.14,1.276,1.276,0,0,1,.481.365,1.529,1.529,0,0,1,.26.547Z" transform="translate(-268.532 -62.789)" fill="#cfe6d8"/>
    <path id="Tracé_115" data-name="Tracé 115" d="M456.626,104.06l-.019-.05-.05.027a.706.706,0,0,1-.655.035,1,1,0,0,1-.388-.88V101.64h.9V101.1h-.907V99.27h-.59v4a1.524,1.524,0,0,0,.2.776,1.129,1.129,0,0,0,.931.609h.039a1.865,1.865,0,0,0,.659-.14h.047l-.019-.043Z" transform="translate(-278.497 -60.771)" fill="#cfe6d8"/>
    <path id="Tracé_116" data-name="Tracé 116" d="M466.68,102.84a1.334,1.334,0,0,0-.706.287,1.939,1.939,0,0,0-.667.892,2.052,2.052,0,0,0-.167.582v2.242h.6v-1.334a5.32,5.32,0,0,1,.089-1.2,1.625,1.625,0,0,1,.423-.632.547.547,0,0,1,.59-.182h.035l.3-.489-.043-.023A.916.916,0,0,0,466.68,102.84Z" transform="translate(-284.754 -62.956)" fill="#cfe6d8"/>
    <path id="Tracé_117" data-name="Tracé 117" d="M475.17,99.08a.45.45,0,0,0-.45.45.458.458,0,0,0,.45.454.442.442,0,0,0,.322-.136.45.45,0,0,0,0-.636A.438.438,0,0,0,475.17,99.08Z" transform="translate(-290.618 -60.654)" fill="#cfe6d8"/>
    <rect id="Rectangle_1464" data-name="Rectangle 1464" width="0.586" height="3.905" transform="translate(184.261 39.989)" fill="#cfe6d8"/>
    <path id="Tracé_118" data-name="Tracé 118" d="M484.7,102.629a1.939,1.939,0,0,0-1.5.655,2.055,2.055,0,0,0-.535,1.4,2.024,2.024,0,0,0,.566,1.423,2.055,2.055,0,0,0,2.928,0,2.024,2.024,0,0,0,.566-1.423,2.055,2.055,0,0,0-.535-1.408A1.939,1.939,0,0,0,484.7,102.629Zm.721,3.351a1.489,1.489,0,0,1-1.443,0,1.353,1.353,0,0,1-.52-.535,1.516,1.516,0,0,1-.194-.748,1.474,1.474,0,0,1,.423-1.055,1.385,1.385,0,0,1,2.021,0,1.458,1.458,0,0,1,.423,1.07,1.524,1.524,0,0,1-.19.749A1.353,1.353,0,0,1,485.423,105.98Z" transform="translate(-295.485 -62.827)" fill="#cfe6d8"/>
    <path id="Tracé_119" data-name="Tracé 119" d="M499.622,103.233a1.1,1.1,0,0,1,.733.388l.035.035.388-.388-.035-.031a1.617,1.617,0,0,0-1.09-.527,1.086,1.086,0,0,0-.776.3,1.016,1.016,0,0,0-.31.756,1.032,1.032,0,0,0,.194.617,1.939,1.939,0,0,0,.717.539,2.117,2.117,0,0,1,.6.388.531.531,0,0,1-.066.749.659.659,0,0,1-.465.178,1.043,1.043,0,0,1-.776-.388l-.035-.043-.388.423.023.031a1.389,1.389,0,0,0,.512.388,1.551,1.551,0,0,0,.652.147,1.163,1.163,0,0,0,.857-.341,1.117,1.117,0,0,0,.341-.822,1.063,1.063,0,0,0-.2-.628,2.2,2.2,0,0,0-.776-.562,1.807,1.807,0,0,1-.57-.388.5.5,0,0,1-.132-.318.43.43,0,0,1,.155-.334A.531.531,0,0,1,499.622,103.233Z" transform="translate(-305.084 -62.876)" fill="#cfe6d8"/>
    <path id="Tracé_120" data-name="Tracé 120" d="M514.209,104.674a2.125,2.125,0,0,0-.427-1.33,1.939,1.939,0,0,0-1.59-.776,1.865,1.865,0,0,0-1.551.741,2.129,2.129,0,0,0,.081,2.715,1.869,1.869,0,0,0,1.489.628,2.192,2.192,0,0,0,.776-.132,1.982,1.982,0,0,0,.617-.388,2.233,2.233,0,0,0,.473-.659l.023-.043-.493-.213-.023.039a2.282,2.282,0,0,1-.407.527,1.486,1.486,0,0,1-.454.264,1.552,1.552,0,0,1-.551.1,1.3,1.3,0,0,1-.973-.411,1.485,1.485,0,0,1-.388-1.008h3.417Zm-3.351-.469a1.551,1.551,0,0,1,.423-.694,1.361,1.361,0,0,1,.931-.345,1.47,1.47,0,0,1,.628.14,1.234,1.234,0,0,1,.477.365,1.467,1.467,0,0,1,.26.547Z" transform="translate(-312.333 -62.789)" fill="#cfe6d8"/>
    <path id="Tracé_121" data-name="Tracé 121" d="M62.97,5.36a3.355,3.355,0,0,0-1.187-3.711C60.93.962,57.645-.993,51.312,2.761A12.41,12.41,0,0,0,48,5.651a38.783,38.783,0,0,1-3.564-1.865C41.17,1.939,37.78,0,31.591,0S22.008,1.939,18.723,3.785a38.585,38.585,0,0,1-3.587,1.869,12.352,12.352,0,0,0-3.312-2.893C5.5-.993,2.217.962,1.364,1.648A3.355,3.355,0,0,0,.177,5.36C.828,7.338,3.144,8.594,6.382,8.726a20.764,20.764,0,0,0,8.245-1.187c3.378,4.9,4.5,12.736,5.519,19.833,1.338,9.347,2.606,18.177,9,18.177a4.1,4.1,0,0,0,2.447-.838,4.084,4.084,0,0,0,2.443.838c6.391,0,7.66-8.831,9-18.177,1.02-7.1,2.141-14.935,5.519-19.837A20.593,20.593,0,0,0,56.8,8.726C60,8.594,62.318,7.338,62.97,5.36ZM6.429,7.175c-3-.12-4.437-1.268-4.778-2.3a1.807,1.807,0,0,1,.686-2.013,4.173,4.173,0,0,1,2.641-.776A12.278,12.278,0,0,1,11.044,4.1a10.727,10.727,0,0,1,2.571,2.152,19.356,19.356,0,0,1-7.186.919ZM27.305,24.018c0-7.807,1.761-13.256,4.285-13.256s4.266,5.43,4.266,13.186a47.535,47.535,0,0,1-1.916,13.8,14.77,14.77,0,0,1-2.346,4.8C29.256,39.74,27.305,32.965,27.305,24.018Zm14.175,3.13c-1.3,9.036-2.412,16.843-7.462,16.843a2.432,2.432,0,0,1-1.272-.388,15.873,15.873,0,0,0,2.68-5.367,49.149,49.149,0,0,0,1.99-14.272C37.416,20.5,37,9.226,31.6,9.226c-1.381,0-3.3.826-4.569,4.762a33.945,33.945,0,0,0-1.268,10.045,49,49,0,0,0,1.982,14.233,16.054,16.054,0,0,0,2.684,5.367,2.5,2.5,0,0,1-1.291.388c-5.042,0-6.166-7.807-7.462-16.843-1.032-7.171-2.16-15.036-5.6-20.244a37.1,37.1,0,0,0,3.409-1.8c3.254-1.842,6.325-3.583,12.1-3.583s8.842,1.741,12.088,3.583c1.086.617,2.183,1.241,3.393,1.8C43.633,12.139,42.5,20,41.48,27.148Zm8.055-20.9A10.638,10.638,0,0,1,52.107,4.1c4.348-2.579,7.349-2.327,8.707-1.237A1.807,1.807,0,0,1,61.5,4.871c-.341,1.035-1.772,2.183-4.778,2.3a19.345,19.345,0,0,1-7.183-.927Z" transform="translate(-0.017)" fill="#cfe6d8"/>
  </g>
</svg>
