<svg id="noun_Megaphone_2199575" xmlns="http://www.w3.org/2000/svg" width="39.428" height="37" viewBox="0 0 39.428 37">
  <path id="Tracé_130" data-name="Tracé 130" d="M6.863,24.307H7.52L10.871,38.9l7.754-1.774h0a1.591,1.591,0,0,0,1.183-1.774h0l-.2-.986a1.49,1.49,0,0,0-1.774-1.117l-.526.131-1.774-7.557,13.406,4.206a2.3,2.3,0,1,0,4.6-.131V20.758l.526-.263a3.81,3.81,0,0,0,2.1-3.351v-.131a3.692,3.692,0,0,0-2.1-3.351l-.526-.263V4.264a2.3,2.3,0,1,0-4.6-.131L10.806,9.85H6.863A4.852,4.852,0,0,0,2,14.713v4.731A4.852,4.852,0,0,0,6.863,24.307Zm9.331,10.646,1.774-.394c.066,0,.2,0,.2.131h0l.2.986c0,.066-.066.2-.131.2l-6.374,1.446L8.834,24.307h1.577l3.549,1.117Zm18.663-17.94v.131a2.441,2.441,0,0,1-1.314,2.169V14.844A2.441,2.441,0,0,1,34.857,17.013ZM31.243,3.278a1.011,1.011,0,0,1,.986.986V29.892a.986.986,0,1,1-1.971,0V4.264A1.011,1.011,0,0,1,31.243,3.278Zm-2.3,25.366-13.8-4.271h0L11.2,23.124V11.1L28.943,5.513ZM3.314,14.713a3.534,3.534,0,0,1,3.549-3.549H9.886V22.993H6.863a3.534,3.534,0,0,1-3.549-3.549h0V14.713Z" transform="translate(-2 -1.895)" fill="#eb7099"/>
  <path id="Tracé_131" data-name="Tracé 131" d="M56.657,25.314h2.629a.657.657,0,0,0,0-1.314H56.657a.657.657,0,0,0,0,1.314Z" transform="translate(-20.515 -9.474)" fill="#eb7099"/>
  <path id="Tracé_132" data-name="Tracé 132" d="M56.666,20.294a.934.934,0,0,0,.394-.131l2.629-1.971A.657.657,0,1,0,58.9,17.14l-2.629,1.971a.707.707,0,0,0-.131.92A.6.6,0,0,0,56.666,20.294Z" transform="translate(-20.523 -7.083)" fill="#eb7099"/>
  <path id="Tracé_133" data-name="Tracé 133" d="M59.294,31.294a.6.6,0,0,0,.526-.263.707.707,0,0,0-.131-.92L57.06,28.14a.657.657,0,1,0-.789,1.051L58.9,31.163A.934.934,0,0,0,59.294,31.294Z" transform="translate(-20.523 -10.854)" fill="#eb7099"/>
  <rect id="Rectangle_1493" data-name="Rectangle 1493" width="2.629" height="1.314" transform="translate(3.286 11.897)" fill="#eb7099"/>
  <rect id="Rectangle_1494" data-name="Rectangle 1494" width="2.629" height="1.314" transform="translate(3.286 14.526)" fill="#eb7099"/>
  <rect id="Rectangle_1495" data-name="Rectangle 1495" width="2.629" height="1.314" transform="translate(3.286 17.154)" fill="#eb7099"/>
</svg>
