<svg id="noun_Movie_2846264" xmlns="http://www.w3.org/2000/svg" width="41.665" height="37" viewBox="0 0 41.665 37">
  <defs>
    <style>
      .cls-1 {
        fill: #eb7099;
      }
    </style>
  </defs>
  <path id="Tracé_123" data-name="Tracé 123" class="cls-1" d="M14.629,18.982a2.112,2.112,0,1,0,2.112,2.112A2.114,2.114,0,0,0,14.629,18.982Zm0,3.088a.976.976,0,1,1,.977-.976A.977.977,0,0,1,14.629,22.07Z" transform="translate(-9.321 -15.785)"/>
  <path id="Tracé_124" data-name="Tracé 124" class="cls-1" d="M41.733,39.979l0-.01a23.327,23.327,0,0,0,0-14.657l0,0-.006-.021c-.008-.024-.02-.044-.029-.066a.789.789,0,0,0-.031-.074l-.007-.011c-.012-.022-.028-.042-.042-.062a.827.827,0,0,0-.06-.083c-.008-.009-.017-.016-.025-.024a.843.843,0,0,0-.1-.094h0a.839.839,0,0,0-.291-.146h-.006a.889.889,0,0,0-.156-.027h-.011a.813.813,0,0,0-.156,0H40.8a.8.8,0,0,0-.161.039h0l-.006,0a.848.848,0,0,0-.13.056L32.56,29.276V24.154a1.8,1.8,0,0,0-1.776-1.818H29.033a5.81,5.81,0,0,0,1.6-4.013,5.631,5.631,0,1,0-11.26,0,5.812,5.812,0,0,0,1.6,4.013h-6.8A8.237,8.237,0,0,0,17.243,15.9a8.1,8.1,0,0,0-8-8.184,8.1,8.1,0,0,0-8,8.184,8.237,8.237,0,0,0,3.071,6.434H3.028a1.8,1.8,0,0,0-1.776,1.818V42.9a1.8,1.8,0,0,0,1.776,1.818H30.784A1.8,1.8,0,0,0,32.56,42.9V36.008l7.947,4.475a.676.676,0,0,0,.074.03c.021.009.04.021.062.029l.027.007a.73.73,0,0,0,.083.022.758.758,0,0,0,.112.014c.018,0,.035.007.053.007a.841.841,0,0,0,.25-.042c.014,0,.027-.012.041-.018a.869.869,0,0,0,.18-.091.664.664,0,0,0,.055-.044.861.861,0,0,0,.125-.123c.019-.024.036-.048.053-.074s.032-.039.045-.062a.847.847,0,0,0,.051-.123A.169.169,0,0,0,41.728,40ZM21.08,18.323A3.921,3.921,0,1,1,25,22.336,3.972,3.972,0,0,1,21.08,18.323ZM2.962,15.9A6.368,6.368,0,0,1,9.247,9.467a6.436,6.436,0,0,1,0,12.869A6.368,6.368,0,0,1,2.962,15.9Zm27.888,27a.067.067,0,0,1-.066.068H3.028a.067.067,0,0,1-.067-.068V39.647H16.906a.875.875,0,0,0,0-1.75H2.962V24.154a.068.068,0,0,1,.067-.068H30.784a.067.067,0,0,1,.066.068Zm1.71-11.626,7.854-4.422a21.558,21.558,0,0,1,0,11.581L32.56,34.011Z" transform="translate(-1.252 -7.717)"/>
</svg>
