<svg xmlns="http://www.w3.org/2000/svg" viewBox="0 0 419.35 868.88"><defs><style>.cls-1{opacity:0.35;}.cls-2{fill:#cfe6d8;}</style></defs><g id="Calque_2" data-name="Calque 2"><g id="Fond_uterus_vert" data-name="Fond uterus vert"><g id="LOGO" class="cls-1"><path class="cls-2" d="M419.35,118.9c-15.75,11-40,19.34-74.42,20.74-48.55,4.09-97.88-2.45-144.87-18.79a216.46,216.46,0,0,1,51.68-45.74c80.17-50,137.43-49.54,167.61-31.62V7.68C386-4.66,326.32-8.66,236.08,47.35c-25.84,16.33-48.55,36.75-66.56,61.26a693.68,693.68,0,0,1-72-39.21c-30.15-18-61-36.28-97.48-50.85a37.94,37.94,0,0,1,.35,5.08V54.34c29.4,12.71,55.5,28,82.25,43.65,21.93,13.07,43.85,26.14,68.91,37.57C81,245,58.33,410.82,38,561.11h0C27,642.07,16.54,718.3.35,779.17v89.71C37.8,796.3,53.41,682.64,69.29,565.19c20.36-149.47,43.07-314.46,111.2-417.38,53.25,20.42,109.63,28.59,166.8,25.32,27.66-1,52.11-6.67,72.06-16Z"/></g></g></g></svg>