<svg width="75" height="68" viewBox="0 0 75 68" fill="none" xmlns="http://www.w3.org/2000/svg">
<path d="M45.334 60.166C45.334 61.82 43.988 63.166 42.334 63.166H7.33398C5.67998 63.166 4.33398 61.82 4.33398 60.166V7.83398C4.33398 6.17998 5.67998 4.83398 7.33398 4.83398H42.334C43.988 4.83398 45.334 6.17998 45.334 7.83398V23.305H49.334V7.83398C49.334 3.97498 46.193 0.833984 42.334 0.833984H7.33398C3.47498 0.833984 0.333984 3.97498 0.333984 7.83398V60.166C0.333984 64.025 3.47498 67.166 7.33398 67.166H42.334C46.193 67.166 49.334 64.025 49.334 60.166V44.695H45.334V60.166ZM58.703 18.209L55.875 21.037L66.837 32H20.666V36H66.839L55.875 46.964L58.703 49.792L74.494 34.001L58.703 18.209Z" fill="white"/>
</svg>
