<svg id="Twitter" xmlns="http://www.w3.org/2000/svg" width="39" height="39" viewBox="0 0 39 39">
  <rect id="Rectangle_1457" data-name="Rectangle 1457" width="39" height="39" fill="none"/>
  <path id="Tracé_2" data-name="Tracé 2" d="M49.17,30.611c13.326,0,20.576-10.974,20.576-20.576v-.98a15.93,15.93,0,0,0,3.527-3.723,16.268,16.268,0,0,1-4.115,1.176,7.624,7.624,0,0,0,3.135-3.919,17.974,17.974,0,0,1-4.507,1.764A7,7,0,0,0,62.5,2a7.363,7.363,0,0,0-7.251,7.251,3.82,3.82,0,0,0,.2,1.568A20.261,20.261,0,0,1,40.548,3.176a7.5,7.5,0,0,0-.98,3.723A7.786,7.786,0,0,0,42.7,12.974a6.606,6.606,0,0,1-3.331-.98h0a7.162,7.162,0,0,0,5.879,7.055,6.041,6.041,0,0,1-1.96.2,3.335,3.335,0,0,1-1.372-.2,7.424,7.424,0,0,0,6.859,5.1,14.8,14.8,0,0,1-9.014,3.135,5.426,5.426,0,0,1-1.764-.2,18.5,18.5,0,0,0,11.17,3.527" transform="translate(-38)" fill="#035e70" fill-rule="evenodd"/>
</svg>
