<svg xmlns="http://www.w3.org/2000/svg" viewBox="0 0 35.28 28.61"><defs><style>.cls-1{fill:#035e70;fill-rule:evenodd;}</style></defs><g id="Calque_2" data-name="Calque 2"><g id="Twitter"><path id="Tracé_2" data-name="Tracé 2" class="cls-1" d="M11.17,28.61c13.33,0,20.58-11,20.58-20.57v-1a16,16,0,0,0,3.53-3.73,16.46,16.46,0,0,1-4.12,1.18A7.69,7.69,0,0,0,34.3.59a18,18,0,0,1-4.51,1.76A7,7,0,0,0,24.5,0a7.36,7.36,0,0,0-7.25,7.25,4,4,0,0,0,.2,1.57A20.29,20.29,0,0,1,2.55,1.18a7.55,7.55,0,0,0-1,3.72A7.78,7.78,0,0,0,4.7,11a6.59,6.59,0,0,1-3.33-1h0a7.17,7.17,0,0,0,5.88,7.06,6.17,6.17,0,0,1-2,.2,3.36,3.36,0,0,1-1.37-.2,7.41,7.41,0,0,0,6.86,5.1,14.82,14.82,0,0,1-9,3.13A5.24,5.24,0,0,1,0,25.08a18.42,18.42,0,0,0,11.17,3.53"/></g></g></svg>
