<svg xmlns="http://www.w3.org/2000/svg" width="50" height="50" viewBox="0 0 50 50">
  <g id="Groupe_353" data-name="Groupe 353" transform="translate(-197 -538)">
    <path id="Tracé_106" data-name="Tracé 106" d="M25,0A25,25,0,1,1,0,25,25,25,0,0,1,25,0Z" transform="translate(197 538)" fill="#9abcc1"/>
    <path id="noun_pills_3522153" d="M27.116,9.179a6.745,6.745,0,0,0-9.53,0L9.179,17.586a6.738,6.738,0,0,0,9.53,9.53l8.408-8.408A6.745,6.745,0,0,0,27.116,9.179Zm-9.53,16.816A5.152,5.152,0,1,1,10.3,18.708l3.643-3.643,7.29,7.29Zm4.765-4.765-7.29-7.286L18.708,10.3a5.152,5.152,0,0,1,7.286,7.286ZM32.02,22.9a9.117,9.117,0,1,0,9.117,9.117A9.129,9.129,0,0,0,32.02,22.9ZM24.488,32.02a7.369,7.369,0,0,1,.1-1.189H39.448a6.912,6.912,0,0,1,0,2.378H24.591A7.8,7.8,0,0,1,24.488,32.02Zm7.532-7.532a7.543,7.543,0,0,1,7,4.757H25.027A7.534,7.534,0,0,1,32.02,24.488Zm0,15.063a7.543,7.543,0,0,1-7-4.757H39.012A7.526,7.526,0,0,1,32.02,39.551Z" transform="translate(197.624 538.624)" fill="#1a1a1a"/>
  </g>
</svg>
