<svg xmlns="http://www.w3.org/2000/svg" width="50" height="50" viewBox="0 0 50 50">
  <g id="Groupe_348" data-name="Groupe 348" transform="translate(-340.293 -216)">
    <path id="Tracé_105" data-name="Tracé 105" d="M25,0A25,25,0,1,1,0,25,25,25,0,0,1,25,0Z" transform="translate(340.293 216)" fill="#db9497"/>
    <g id="Groupe_43" data-name="Groupe 43" transform="translate(351.046 223.75)">
      <path id="Tracé_115" data-name="Tracé 115" d="M146.6,140.912v-.838c.072-.4.145-.809.231-1.214a10.94,10.94,0,0,1,.968-2.587,30.35,30.35,0,0,1,2.688-4.321c.824-1.113,1.662-2.226,2.529-3.3a2.547,2.547,0,0,1,2.356-.91,2.8,2.8,0,0,1,1.127.361.2.2,0,0,1,.043-.058,34.489,34.489,0,0,1,2.89-4.451q.954-1.279,1.951-2.515a2.562,2.562,0,0,1,1.4-.954c.173-.043.361-.087.535-.13h.52c.043.014.072.014.116.029.332.116.679.2,1,.347a3.184,3.184,0,0,1,1.026.939,56.9,56.9,0,0,1,3.685,4.986,16.552,16.552,0,0,1,2.182,4.379,7.22,7.22,0,0,1,.361,2.067,10.044,10.044,0,0,1-.462,2.63,8.65,8.65,0,0,1-1.806,3.035c-.087.1-.1.159-.029.275.275.39.549.795.809,1.2a17.044,17.044,0,0,1,2.2,4.379,9.546,9.546,0,0,1,.318,1.416,5.689,5.689,0,0,1-.13,2.1,7.6,7.6,0,0,1-.694,2.168,9.494,9.494,0,0,1-2.746,3.266,8.384,8.384,0,0,1-3.3,1.373c-.419.087-.853.145-1.272.217h-.939c-.029-.014-.058-.014-.087-.029-.694-.145-1.387-.26-2.067-.434a7.394,7.394,0,0,1-2.3-1.185,8.22,8.22,0,0,1-2.9-3.7c-.087-.217-.159-.448-.231-.665-.26.043-.506.087-.766.116a7.887,7.887,0,0,1-3.613-.506,8.374,8.374,0,0,1-3.96-2.992,8.189,8.189,0,0,1-1.4-3.208C146.759,141.764,146.687,141.345,146.6,140.912Zm18.238,11.836a6.706,6.706,0,0,0,2.731-.65,6.544,6.544,0,0,0,3.107-3.223,5.616,5.616,0,0,0,.52-3.252,6.8,6.8,0,0,0-.636-1.893,22.81,22.81,0,0,0-2.153-3.671,40.178,40.178,0,0,0-3.194-4.119.683.683,0,0,0-1.156.029,46.326,46.326,0,0,0-2.9,3.8,26.194,26.194,0,0,0-2.428,4.292,5.727,5.727,0,0,0-.3,3.888A6.608,6.608,0,0,0,164.838,152.748Zm-8.613-7.3c-.26.029-.535.087-.795.1a5.2,5.2,0,0,1-2.861-.621.427.427,0,0,1,.4-.751c.13.058.246.116.376.173a4.309,4.309,0,0,0,2.977.159.249.249,0,0,0,.159-.159,13.151,13.151,0,0,1,.983-2.385,34.213,34.213,0,0,1,3.006-4.711.246.246,0,0,0,.029-.332c-.564-.91-1.1-1.835-1.691-2.717a36.21,36.21,0,0,0-3.179-4.1.683.683,0,0,0-1.156.029,47.335,47.335,0,0,0-2.934,3.844,26.864,26.864,0,0,0-2.4,4.263,5.827,5.827,0,0,0-.231,4.1,6.506,6.506,0,0,0,6.879,4.538c.376-.043.376-.043.376-.434C156.2,146.1,156.21,145.768,156.225,145.45Zm12.4-8.541c.3-.477.607-.91.853-1.373a5.636,5.636,0,0,0,.607-3.714,9.1,9.1,0,0,0-.867-2.254,29.932,29.932,0,0,0-2.385-3.844,38.7,38.7,0,0,0-2.717-3.425.676.676,0,0,0-1.1.014c-.13.145-.26.318-.39.462a39.9,39.9,0,0,0-3.338,4.581c-.434.708-.824,1.46-1.228,2.182a.287.287,0,0,0-.014.217c.246.332.535.65.78,1,.751,1.041,1.5,2.081,2.24,3.136.318.448.593.925.9,1.4l.477-.607a2.675,2.675,0,0,1,1.1-.867,2.768,2.768,0,0,1,3.353.882l.26.3a3.732,3.732,0,0,0,.578-1.272c.087-.347.116-.723.173-1.069a.418.418,0,0,1,.332-.39.4.4,0,0,1,.462.217.54.54,0,0,1,.043.3,5.115,5.115,0,0,1-.925,2.8c-.029.058-.072.159-.043.188C168.032,136.157,168.307,136.5,168.625,136.909Z" transform="translate(-146.6 -119.986)" fill-rule="evenodd"/>
      <path id="Tracé_116" data-name="Tracé 116" d="M163.321,119.914c-.173.043-.361.087-.535.13a2.64,2.64,0,0,0-1.4.954q-1,1.257-1.951,2.515a37.847,37.847,0,0,0-2.89,4.451c-.014.014-.029.043-.043.058a2.8,2.8,0,0,0-1.127-.361,2.547,2.547,0,0,0-2.356.91c-.882,1.069-1.705,2.182-2.529,3.295a28.811,28.811,0,0,0-2.688,4.321,10.939,10.939,0,0,0-.968,2.587c-.087.4-.159.809-.231,1.214V119.9Q154.968,119.922,163.321,119.914Z" transform="translate(-146.6 -119.9)" fill="none"/>
      <path id="Tracé_117" data-name="Tracé 117" d="M267.157,154.7c.419-.072.853-.13,1.272-.217a8.176,8.176,0,0,0,3.3-1.373,9.338,9.338,0,0,0,2.746-3.266,8.823,8.823,0,0,0,.694-2.168,6.039,6.039,0,0,0,.13-2.1,11.8,11.8,0,0,0-.318-1.416,16.6,16.6,0,0,0-2.2-4.379c-.26-.4-.535-.809-.809-1.2-.087-.116-.058-.173.029-.275a8.523,8.523,0,0,0,1.806-3.035,9.064,9.064,0,0,0,.462-2.63,7.134,7.134,0,0,0-.361-2.067,17.233,17.233,0,0,0-2.182-4.379,56.143,56.143,0,0,0-3.685-4.986,3.185,3.185,0,0,0-1.026-.939c-.318-.145-.665-.231-1-.347-.043-.014-.072-.014-.116-.029h9.466v34.785C272.634,154.7,269.889,154.7,267.157,154.7Z" transform="translate(-248.659 -119.9)" fill="none"/>
      <path id="Tracé_118" data-name="Tracé 118" d="M146.6,264.7c.072.419.145.853.231,1.272a7.985,7.985,0,0,0,1.4,3.208,8.374,8.374,0,0,0,3.96,2.992,7.887,7.887,0,0,0,3.613.506c.246-.029.506-.072.766-.116.072.217.145.448.231.665a8.144,8.144,0,0,0,2.9,3.7,7.24,7.24,0,0,0,2.3,1.185c.679.188,1.373.289,2.067.434a.206.206,0,0,1,.087.029H146.614Q146.593,271.637,146.6,264.7Z" transform="translate(-146.6 -243.774)" fill="none"/>
      <path id="Tracé_119" data-name="Tracé 119" d="M233.55,245.213a6.612,6.612,0,0,1-6.417-4.812,5.637,5.637,0,0,1,.3-3.888,26.192,26.192,0,0,1,2.428-4.292,46.326,46.326,0,0,1,2.9-3.8.683.683,0,0,1,1.156-.029,41.814,41.814,0,0,1,3.194,4.119,25.163,25.163,0,0,1,2.153,3.671,6.8,6.8,0,0,1,.636,1.893,5.616,5.616,0,0,1-.52,3.252,6.542,6.542,0,0,1-3.107,3.223A6.253,6.253,0,0,1,233.55,245.213Zm-.2-1.315c.173-.014.332-.014.506-.029a5.216,5.216,0,0,0,4.682-5.044.438.438,0,0,0-.4-.491c-.246-.014-.419.159-.448.448a5.029,5.029,0,0,1-.491,1.879,4.32,4.32,0,0,1-5.882,1.85.426.426,0,1,0-.39.752A5.027,5.027,0,0,0,233.347,243.9Z" transform="translate(-215.312 -212.451)" fill="none"/>
      <path id="Tracé_120" data-name="Tracé 120" d="M168.355,203.354c-.014.332-.043.65-.043.983,0,.39,0,.376-.376.434a6.526,6.526,0,0,1-6.879-4.538,5.674,5.674,0,0,1,.231-4.1,26.241,26.241,0,0,1,2.4-4.263,47.334,47.334,0,0,1,2.934-3.844.683.683,0,0,1,1.156-.029,36.207,36.207,0,0,1,3.179,4.1c.592.9,1.127,1.821,1.691,2.717a.246.246,0,0,1-.029.332,34.213,34.213,0,0,0-3.006,4.711,14.274,14.274,0,0,0-.983,2.385.249.249,0,0,1-.159.159,4.151,4.151,0,0,1-2.977-.159c-.13-.058-.26-.116-.376-.173a.435.435,0,0,0-.578.173.415.415,0,0,0,.173.578,5.076,5.076,0,0,0,2.861.621C167.82,203.426,168.095,203.383,168.355,203.354Z" transform="translate(-158.73 -177.89)" fill="none"/>
      <path id="Tracé_121" data-name="Tracé 121" d="M236.2,149.056c-.318-.4-.593-.751-.867-1.1-.029-.029,0-.145.043-.188a5.153,5.153,0,0,0,.925-2.8,1.027,1.027,0,0,0-.043-.3.4.4,0,0,0-.462-.217.433.433,0,0,0-.332.39,8.68,8.68,0,0,1-.173,1.069,3.732,3.732,0,0,1-.578,1.272c-.087-.116-.173-.2-.26-.3a2.763,2.763,0,0,0-3.353-.882,2.7,2.7,0,0,0-1.1.867c-.159.2-.3.39-.477.607-.3-.477-.578-.954-.9-1.4-.737-1.055-1.489-2.1-2.24-3.136-.246-.347-.52-.665-.78-1a.287.287,0,0,1,.014-.217c.4-.737.795-1.474,1.228-2.182a38.241,38.241,0,0,1,3.338-4.581,6,6,0,0,1,.39-.462.676.676,0,0,1,1.1-.014,41.546,41.546,0,0,1,2.717,3.425,28.409,28.409,0,0,1,2.385,3.844,9.1,9.1,0,0,1,.867,2.254,5.549,5.549,0,0,1-.607,3.714C236.807,148.145,236.5,148.579,236.2,149.056Z" transform="translate(-214.175 -132.133)" fill="none"/>
      <path id="Tracé_122" data-name="Tracé 122" d="M255.36,304.645a5.328,5.328,0,0,1-2.442-.621.44.44,0,0,1-.217-.607.421.421,0,0,1,.607-.145,4.316,4.316,0,0,0,5.882-1.85,4.77,4.77,0,0,0,.491-1.879c.029-.289.188-.462.448-.448a.438.438,0,0,1,.4.491,5.2,5.2,0,0,1-4.682,5.044A2.794,2.794,0,0,0,255.36,304.645Z" transform="translate(-237.324 -273.197)" fill-rule="evenodd"/>
    </g>
  </g>
</svg>
