<svg xmlns="http://www.w3.org/2000/svg" width="50" height="50" viewBox="0 0 50 50">
  <g id="Groupe_349" data-name="Groupe 349" transform="translate(-194 -316)">
    <circle id="Ellipse_81" data-name="Ellipse 81" cx="25" cy="25" r="25" transform="translate(194 316)" fill="#8c97cf"/>
    <g id="Groupe_51" data-name="Groupe 51" transform="translate(204 325)">
      <g id="Groupe_47" data-name="Groupe 47" transform="translate(3.535 0.032)">
        <path id="Tracé_128" data-name="Tracé 128" d="M14.586,32.138a.391.391,0,0,1-.386-.386V31.3c0-2.989,0-7.1.1-8.067a1.341,1.341,0,0,1,.964-1.157,1.314,1.314,0,0,1,1.446.45,14.152,14.152,0,0,0,1.125,1.253A11.339,11.339,0,0,0,31.94,26.064a13.5,13.5,0,0,0,1.414-.932,17.988,17.988,0,0,0,5.817-8.677c.418-1.286.546-2.121.578-2.121,1.125-5.72-1.157-9.448-3.471-10.895a5.121,5.121,0,0,0-2.86-.707,2.825,2.825,0,0,0-2.8,2.185,1.418,1.418,0,0,1-1.221,1,1.39,1.39,0,0,1-1.35-.771A9.028,9.028,0,0,1,26.991.8V.386a.386.386,0,1,1,.771,0V.8a8.529,8.529,0,0,0,.964,4.017.62.62,0,0,0,1.157-.1,3.534,3.534,0,0,1,3.471-2.732,5.568,5.568,0,0,1,3.278.836c2.507,1.575,5.013,5.56,3.792,11.666a17.688,17.688,0,0,1-.578,2.217,18.825,18.825,0,0,1-6.074,9.063,16.72,16.72,0,0,1-1.478,1,12.117,12.117,0,0,1-15.008-2.41c-.386-.418-.8-.868-1.157-1.318a.6.6,0,0,0-.643-.193.549.549,0,0,0-.418.514c-.1,1.028-.1,6.267-.1,7.97v.45A.365.365,0,0,1,14.586,32.138Z" transform="translate(-14.2)" stroke="#000" stroke-width="0.5"/>
      </g>
      <g id="Groupe_48" data-name="Groupe 48" transform="translate(22.625 4.274)">
        <path id="Tracé_129" data-name="Tracé 129" d="M78.035,18.085a.344.344,0,0,1-.354-.289A5.628,5.628,0,0,0,75.4,14.389a2.787,2.787,0,0,0-1.414-.418.391.391,0,0,1-.386-.386.371.371,0,0,1,.386-.386,3.66,3.66,0,0,1,1.832.514,6.475,6.475,0,0,1,2.6,3.857.352.352,0,0,1-.257.45C78.1,18.085,78.067,18.085,78.035,18.085Z" transform="translate(-73.6 -13.2)" stroke="#000" stroke-width="0.5"/>
      </g>
      <g id="Groupe_49" data-name="Groupe 49" transform="translate(5.688)">
        <path id="Tracé_130" data-name="Tracé 130" d="M26.3,19.986a7.079,7.079,0,0,1-1.8-.225,10.047,10.047,0,0,1-2.571-1.189A2.076,2.076,0,0,1,20.9,16.836V13.3a.386.386,0,1,1,.771,0v3.535a1.459,1.459,0,0,0,.707,1.125,8.081,8.081,0,0,0,2.346,1.093,5.474,5.474,0,0,0,4.564-.707,5.064,5.064,0,0,0,2.089-3.7,8.535,8.535,0,0,0-1.028-4.66,21.713,21.713,0,0,1-2.442-8.645V.286A.391.391,0,0,1,28.292-.1a.371.371,0,0,1,.386.386V1.346a20.327,20.327,0,0,0,2.346,8.291,9.447,9.447,0,0,1,1.125,5.11,5.69,5.69,0,0,1-2.41,4.21A5.928,5.928,0,0,1,26.3,19.986Z" transform="translate(-20.9 0.1)" stroke="#000" stroke-width="0.5"/>
      </g>
      <g id="Groupe_50" data-name="Groupe 50" transform="translate(0 13.016)">
        <path id="Tracé_131" data-name="Tracé 131" d="M3.586,59.554a.391.391,0,0,1-.386-.386V49.945a5.361,5.361,0,0,1,2.314-4.339,1.377,1.377,0,0,0,.546-1.028V40.786a.386.386,0,1,1,.771,0v3.792A2.07,2.07,0,0,1,6,46.217,4.608,4.608,0,0,0,4,49.945V59.2A.476.476,0,0,1,3.586,59.554Z" transform="translate(-3.2 -40.4)" stroke="#000" stroke-width="0.5"/>
      </g>
    </g>
  </g>
</svg>
