<svg xmlns="http://www.w3.org/2000/svg" viewBox="0 0 21 21"><defs><style>.cls-1{fill:#035e70;}.cls-2,.cls-3{fill:none;}.cls-3{stroke:#facfd1;stroke-width:1.5px;}</style></defs><g id="Calque_2" data-name="Calque 2"><g id="Calque_1-2" data-name="Calque 1"><g id="Groupe_127" data-name="Groupe 127"><path id="Soustraction_2" data-name="Soustraction 2" class="cls-1" d="M.24,10.46A9.12,9.12,0,0,1,3.31,3.67,10.91,10.91,0,0,1,10.74.86V20.05a11,11,0,0,1-7.43-2.81A9.14,9.14,0,0,1,.24,10.46Z"/><path id="Soustraction_3" data-name="Soustraction 3" class="cls-1" d="M19.08,15.57a9.11,9.11,0,0,1-5.7,4.14A10.92,10.92,0,0,1,6,18.87L15.85,2.5a10.86,10.86,0,0,1,4.2,6.11A9.11,9.11,0,0,1,19.08,15.57Z"/><g id="Ellipse_131" data-name="Ellipse 131"><circle class="cls-2" cx="10.5" cy="10.5" r="10.5"/><circle class="cls-3" cx="10.5" cy="10.5" r="9.75"/></g></g></g></g></svg>