<svg xmlns="http://www.w3.org/2000/svg" width="21" height="21" viewBox="0 0 21 21">
  <g id="Groupe_124" data-name="Groupe 124" transform="translate(0.135)">
    <path id="Soustraction_6" data-name="Soustraction 6" d="M9.6,10.5A9.138,9.138,0,0,1,2.811,7.425,10.951,10.951,0,0,1,0,0H19.192a10.951,10.951,0,0,1-2.811,7.425A9.137,9.137,0,0,1,9.6,10.5Z" transform="translate(10.63 1) rotate(90)" fill="#035e70"/>
    <path id="Soustraction_7" data-name="Soustraction 7" d="M9.551,10.5A8.723,8.723,0,0,1,3.077,7.459,12.593,12.593,0,0,1,0,0H19.1a12.593,12.593,0,0,1-3.076,7.459A8.724,8.724,0,0,1,9.551,10.5Z" transform="translate(1.658 10)" fill="#035e70"/>
    <g id="Ellipse_138" data-name="Ellipse 138" transform="translate(-0.135)" fill="none" stroke="#facfd1" stroke-width="1.5">
      <circle cx="10.5" cy="10.5" r="10.5" stroke="none"/>
      <circle cx="10.5" cy="10.5" r="9.75" fill="none"/>
    </g>
  </g>
</svg>
