<svg xmlns="http://www.w3.org/2000/svg" width="50" height="50" viewBox="0 0 50 50">
  <g id="Groupe_351" data-name="Groupe 351" transform="translate(-194 -439)">
    <path id="Tracé_104" data-name="Tracé 104" d="M25,0A25,25,0,1,1,0,25,25,25,0,0,1,25,0Z" transform="translate(194 439)" fill="#fff185"/>
    <g id="noun_Alarm_Clock_63312" data-name="noun_Alarm Clock_63312" transform="translate(194.464 447.279)">
      <path id="Tracé_123" data-name="Tracé 123" d="M37.1,20.239a12.761,12.761,0,0,0-5.114-10.226l.563-.826L35.807,11.2a4.212,4.212,0,0,0-.82-5.394.727.727,0,0,0-1.237-.75,4.181,4.181,0,0,0-.691-.2c-.3-2.037-2.867-3.578-6.085-3.578h-5.1c-3.2,0-5.743,1.52-6.076,3.535a4.185,4.185,0,0,0-.913.244.727.727,0,0,0-1.237.749,4.213,4.213,0,0,0-.82,5.4l3.258-2.015.563.826a12.778,12.778,0,0,0-1.88,18.721l-1.456,2.619,1.158.965,2.086-1.924a12.772,12.772,0,0,0,15.519,0l2.086,1.924,1.158-.965-1.456-2.619A12.728,12.728,0,0,0,37.1,20.239ZM17.061,8.585,20,6.766a4.2,4.2,0,0,0-2.889-1.936c.383-1.269,2.407-2.274,4.766-2.274h5.1c2.34,0,4.352.988,4.757,2.243a4.205,4.205,0,0,0-3.094,1.966l2.938,1.818-.535.785a12.779,12.779,0,0,0-13.445,0ZM13.253,20.239A11.065,11.065,0,1,1,24.318,31.3,11.065,11.065,0,0,1,13.253,20.239Z" transform="translate(0 0)" fill="#1a1a1a"/>
      <path id="Tracé_124" data-name="Tracé 124" d="M49.1,40.715a.841.841,0,0,0,.041-.247.854.854,0,0,0-.413-.729V32.1l-.445-.524-.444.524v7.638a.855.855,0,0,0,.445,1.586.888.888,0,0,0,.155-.016l5.407,5.407.685.056-.057-.685Z" transform="translate(-23.961 -20.23)" fill="#1a1a1a"/>
    </g>
  </g>
</svg>
