<svg xmlns="http://www.w3.org/2000/svg" width="50" height="50" viewBox="0 0 50 50">
  <g id="Groupe_355" data-name="Groupe 355" transform="translate(-337 -439)">
    <g id="Groupe_352" data-name="Groupe 352">
      <circle id="Ellipse_81" data-name="Ellipse 81" cx="25" cy="25" r="25" transform="translate(337 439)" fill="#b0cfe8"/>
      <g id="Groupe_45" data-name="Groupe 45" transform="translate(344.023 447.71)">
        <g id="Groupe_44" data-name="Groupe 44" transform="translate(0 0)">
          <path id="Tracé_125" data-name="Tracé 125" d="M32.545,12.394,27.65,17.289a.813.813,0,0,1-1.121,0l-3.01-3.01a.569.569,0,0,0-.8,0l-4.546,4.539a.568.568,0,0,0,0,.8l4.9,4.895-1.7,9.148a1.133,1.133,0,0,1-1.58.769,1.2,1.2,0,0,1-.6-1.393l1.085-6.924a.567.567,0,0,0-.151-.481L16.093,21.42a.568.568,0,0,0-.41-.175.65.65,0,0,0-.414.179l-4.311,4.6h-7.7a1.135,1.135,0,0,1-1.133-1.2,1.2,1.2,0,0,1,1.229-1.073H8.934a.568.568,0,0,0,.423-.189L19,12.789a.567.567,0,0,0-.423-.946H15.742a.568.568,0,0,0-.412.178l-3.873,4.1a.814.814,0,0,1-.594.263h0a.813.813,0,0,1-.6-.264.871.871,0,0,1,.079-1.172L15.4,10.141h5.952a1.038,1.038,0,0,1,.708.277l4.154,3.834a1.537,1.537,0,0,0,2.145-.049l2.96-2.991a.81.81,0,0,1,1.145,0l.081.081a.78.78,0,0,1,0,1.1m.8-1.9-.081-.081a1.947,1.947,0,0,0-2.752,0l-2.962,2.993a.409.409,0,0,1-.568.014L22.831,9.585a2.172,2.172,0,0,0-1.478-.578H15.175a.569.569,0,0,0-.391.156L9.548,14.134a2.006,2.006,0,0,0-.117,2.759,1.934,1.934,0,0,0,1.428.624h.01a1.947,1.947,0,0,0,1.42-.625l3.7-3.914H17.31L8.68,22.623H3.357A2.32,2.32,0,0,0,.995,24.771a2.25,2.25,0,0,0,.62,1.683,2.278,2.278,0,0,0,1.646.707H11.2a.568.568,0,0,0,.414-.179l4.07-4.344,3.422,3.578-1.033,6.6a2.263,2.263,0,0,0,2.192,2.852A2.265,2.265,0,0,0,22.478,33.9l1.765-9.467a.569.569,0,0,0-.157-.506l-4.711-4.7,3.742-3.737,2.609,2.609a1.975,1.975,0,0,0,2.726,0L33.347,13.2a1.913,1.913,0,0,0,0-2.706" transform="translate(-0.991 -3.9)" fill="#1a1a1a" stroke="#1a1a1a" stroke-width="0.4" fill-rule="evenodd"/>
          <path id="Tracé_126" data-name="Tracé 126" d="M44.395,1.142a2.269,2.269,0,1,1-2.269,2.269,2.272,2.272,0,0,1,2.269-2.269m0,5.674a3.4,3.4,0,1,0-3.4-3.4,3.408,3.408,0,0,0,3.4,3.4" transform="translate(-18.297 -0.007)" fill="#1a1a1a" stroke="#1a1a1a" stroke-width="0.4" fill-rule="evenodd"/>
        </g>
      </g>
    </g>
  </g>
</svg>
