<svg xmlns="http://www.w3.org/2000/svg" width="50" height="50" viewBox="0 0 50 50">
  <g id="Groupe_354" data-name="Groupe 354" transform="translate(-337 -538)">
    <circle id="Ellipse_81" data-name="Ellipse 81" cx="25" cy="25" r="25" transform="translate(337 538)" fill="#78cebd"/>
    <path id="noun_medical_2207153" d="M26.516,15.608a1.351,1.351,0,1,1,1.351-1.351A1.438,1.438,0,0,1,26.516,15.608Zm0-1.5a.147.147,0,0,0-.15.15.225.225,0,0,0,.45,0C26.666,14.257,26.666,14.107,26.516,14.107Zm0-3.9a4.2,4.2,0,0,0-4.2,4.2,4.044,4.044,0,0,0,3.3,4.053v6.9c0,3.3-3,5.854-6.754,5.854a6.818,6.818,0,0,1-4.8-1.8,5.518,5.518,0,0,1-1.951-4.053v-6.9a6.335,6.335,0,0,0,6-6V8.7a2.748,2.748,0,0,0,1.951-2.552A2.567,2.567,0,0,0,17.36,3.6a2.663,2.663,0,0,0-2.7,2.552,2.761,2.761,0,0,0,1.8,2.552v3.9c0,2.552-2.4,4.5-5.253,4.5a5.765,5.765,0,0,1-3.752-1.351,4.486,4.486,0,0,1-1.5-3.152V8.7A2.748,2.748,0,0,0,7.9,6.152,2.567,2.567,0,0,0,5.2,3.6,2.406,2.406,0,0,0,2.8,6.152,2.761,2.761,0,0,0,4.6,8.7v3.9a5.585,5.585,0,0,0,1.951,4.2,7.539,7.539,0,0,0,4.053,1.651v6.9a7.19,7.19,0,0,0,2.4,5.253,8.734,8.734,0,0,0,5.854,2.1c4.5,0,8.255-3.3,8.255-7.355v-6.9a4.314,4.314,0,0,0,3.6-4.053A4.3,4.3,0,0,0,26.516,10.2ZM16.309,6.152a1.184,1.184,0,0,1,1.2-1.2,1.1,1.1,0,0,1,1.2,1.2,1.226,1.226,0,0,1-1.351,1.2A1.064,1.064,0,0,1,16.309,6.152ZM4.3,6.152a1.16,1.16,0,0,1,1.051-1.2,1.184,1.184,0,0,1,1.2,1.2,1.1,1.1,0,0,1-1.2,1.2A1.064,1.064,0,0,1,4.3,6.152ZM26.516,17.109a2.7,2.7,0,1,1,2.7-2.7A2.691,2.691,0,0,1,26.516,17.109Z" transform="translate(345.2 544.4)"/>
  </g>
</svg>
