<svg xmlns="http://www.w3.org/2000/svg" width="50" height="50" viewBox="0 0 50 50">
  <g id="Groupe_350" data-name="Groupe 350" transform="translate(-338 -316)">
    <circle id="Ellipse_81" data-name="Ellipse 81" cx="25" cy="25" r="25" transform="translate(338 316)" fill="#b9b9b9"/>
    <path id="noun_confusion_2900892" d="M39.4,12.631a22.088,22.088,0,0,0-9.469-.785A10.08,10.08,0,0,0,24.8,14.2a9.747,9.747,0,0,0-2.448,4.018l-.092.323a8.985,8.985,0,0,1-.37,1.016,17.92,17.92,0,0,0-.647,2.078,4.518,4.518,0,0,0-.046,2.078c.046.277.139.508.185.739a1.665,1.665,0,0,1-.046,1.478A12.271,12.271,0,0,1,20,28.012a1.225,1.225,0,0,0-.231.277,2.466,2.466,0,0,0-.924,2.171,2.213,2.213,0,0,0,1.293,1.617l.092.046c.092.046.185.046.277.139v.046c0,.185-.046.462-.046.693-.046.508-.092.831.092,1.109a4.892,4.892,0,0,0,.462.554,1.05,1.05,0,0,0-.231.831,1.785,1.785,0,0,0,.554.878c.092.139.231.231.277.37l-.139.416a3.764,3.764,0,0,0-.277,1.432c.092,1.247,1.109,2.125,3,2.494a16.345,16.345,0,0,0,3.372.231h.693a7.859,7.859,0,0,1,.462,1.478,3.46,3.46,0,0,0,.185.739c.277,1.016.831,3.095.831,3.095l.185.693,13.856-6.6-.185-.508c0-.046-1.062-3.233-.277-5.4a18.192,18.192,0,0,1,1.663-2.91c1.293-1.94,2.679-4.157,2.817-6.328C47.9,22.469,47.529,14.941,39.4,12.631Zm7.159,12.886c-.139,1.848-1.478,3.926-2.679,5.774a17.164,17.164,0,0,0-1.755,3.095c-.785,1.986-.185,4.619.092,5.681L30.532,45.61c-.185-.693-.462-1.8-.647-2.448l-.139-.693a7.69,7.69,0,0,0-.647-1.986c-.185-.323-.508-.37-1.062-.37h-.554a13.939,13.939,0,0,1-3.095-.185c-1.986-.416-2.032-1.2-2.078-1.478a2.7,2.7,0,0,1,.231-1.016,2.7,2.7,0,0,0,.185-.831,1.769,1.769,0,0,0-.6-1.109c-.046-.092-.185-.185-.231-.277a.557.557,0,0,1,.231-.231l.508-.37-.462-.462c-.231-.231-.508-.554-.647-.693,0-.092.046-.277.046-.416a5.02,5.02,0,0,0,.046-.831,1.285,1.285,0,0,0-1.062-1.247l-.092-.046a1.042,1.042,0,0,1-.6-.785c-.092-.323.323-.739.647-1.109.092-.092.185-.231.277-.323A9.359,9.359,0,0,0,22.264,26.4a2.7,2.7,0,0,0,.139-2.309,4.739,4.739,0,0,0-.185-.647,3.839,3.839,0,0,1,.046-1.617,13.651,13.651,0,0,1,.647-1.94,9.673,9.673,0,0,0,.37-1.062l.092-.277h0a8.626,8.626,0,0,1,2.171-3.556,8.7,8.7,0,0,1,4.526-2.078,20.51,20.51,0,0,1,8.96.739C46.144,15.726,46.79,22.007,46.559,25.518Zm-4.2-6a5.359,5.359,0,0,0-.97-.739,1.717,1.717,0,0,0,.231-1.062,2.784,2.784,0,0,0-1.57-2.125A5.477,5.477,0,0,0,37,14.8a3.688,3.688,0,0,0-2.54,1.293.833.833,0,0,0-.092-.462,1.534,1.534,0,0,0-.785-.831,4.363,4.363,0,0,0-4.434.185,4.56,4.56,0,0,0-1.894,2.54,3.194,3.194,0,0,0-.878.462,4.408,4.408,0,0,0-1.848,2.771,3.523,3.523,0,0,0,1.062,3.233,5.111,5.111,0,0,0,3.556,1.016h.231a1.124,1.124,0,0,0-.6.693.978.978,0,0,0,.092.878,1.141,1.141,0,0,0,.878.554,3.412,3.412,0,0,0,.97,0h.554a14.916,14.916,0,0,0,2.032,0h.185a2.263,2.263,0,0,0,1.293,1.155,2.982,2.982,0,0,0,.878.185,2.3,2.3,0,0,0,.97-.231,2.894,2.894,0,0,0,1.2-1.155c.046-.046.046-.092.092-.139A6.685,6.685,0,0,0,39.585,27a5,5,0,0,0,4.249-4.018,3.982,3.982,0,0,0-.046-1.478,4.677,4.677,0,0,0-1.432-1.986Zm-7.159-2.4A2.409,2.409,0,0,1,37.091,16a4.1,4.1,0,0,1,2.4.647c.37.231.97.647,1.016,1.155a.99.99,0,0,1-.185.554,2.575,2.575,0,0,0-1.755.323c-.092.092-.185.139-.277.231a6.544,6.544,0,0,0-.831-.37,4.957,4.957,0,0,0-1.617-.277,3.565,3.565,0,0,0-.693.092l-.046-.231A1.525,1.525,0,0,1,35.2,17.112Zm4.065,5.081a4.386,4.386,0,0,1-.462-.785,1.853,1.853,0,0,1-.139-.693c.092.139.185.231.277.37a1.841,1.841,0,0,1,.323,1.109ZM34.6,20.021c.092.092.185.139.277.231-.046.139-.046.323-.092.462a2.84,2.84,0,0,0,.046.647h-.185l-.323.046a.685.685,0,0,1-.046-.323A1.527,1.527,0,0,1,34.6,20.021ZM33.9,17.527a2.634,2.634,0,0,0,.046.6l-.231-.139-.185-.092A1.406,1.406,0,0,0,33.9,17.527ZM29.747,16a3.45,3.45,0,0,1,3.279-.139c.231.092.231.185.231.185a.346.346,0,0,1-.046.231,2.636,2.636,0,0,1-2.91,1.432l-.693-.139a4.275,4.275,0,0,0-1.062-.185A3.848,3.848,0,0,1,29.747,16ZM33.4,19.19a3.853,3.853,0,0,0-.554.37h0a2.172,2.172,0,0,0-.739,1.432,1.29,1.29,0,0,1-.277-.831,1.418,1.418,0,0,1,.37-1.109.641.641,0,0,1,.462-.231h0a1.025,1.025,0,0,1,.508.231Zm-5.173-.6a5.014,5.014,0,0,1,1.155.185c.277.046.554.139.831.185a3.5,3.5,0,0,0,.693.046,2.636,2.636,0,0,0-.185,1.339,2.48,2.48,0,0,0,1.062,1.848,2.91,2.91,0,0,0,1.339.462c.185.092.37.185.6.277h.046l.046.092a6.592,6.592,0,0,1-1.016.37,6.753,6.753,0,0,1-.924.231c-.046-.185-.092-.323-.139-.508a3.985,3.985,0,0,0-1.848-1.755,4.463,4.463,0,0,1-1.2-.878,2.52,2.52,0,0,1-.508-1.524,1.148,1.148,0,0,0,.046-.37Zm.924,5.358a3.846,3.846,0,0,1-2.771-.693,2.317,2.317,0,0,1-.693-2.217,3.329,3.329,0,0,1,1.386-2.032h0a3.655,3.655,0,0,0,.739,2.217,6.065,6.065,0,0,0,1.478,1.155c.6.37,1.155.693,1.339,1.2a.586.586,0,0,1,.046.277c-.508.046-1.016.046-1.524.092Zm7.021,3.326a1.184,1.184,0,0,1-.97,0,.744.744,0,0,1-.323-.185,11.126,11.126,0,0,0,1.709-.323l.185.046a2.965,2.965,0,0,1-.6.462Zm1.386-2.217a10.419,10.419,0,0,1-1.016.508h0a7.579,7.579,0,0,0-2.032-.185,1.374,1.374,0,0,0-.693.231,1.808,1.808,0,0,0-.37.462h-3c.046,0,.092-.046.185-.046a1.877,1.877,0,0,0,1.109-1.109c0-.046.046-.046.046-.092.462-.092.924-.231,1.386-.37a6.625,6.625,0,0,0,1.57-.647h0a4.2,4.2,0,0,0,2.864.647h.046a3.178,3.178,0,0,0-.092.6Zm.231-1.709A2.859,2.859,0,0,1,37,22.839a3.109,3.109,0,0,1-.647-.693h0a1.968,1.968,0,0,0-.046-1.894h0c.046,0,.139-.046.185-.046a4.451,4.451,0,0,1,1.109,0,3.186,3.186,0,0,0,.139,1.617,5.658,5.658,0,0,0,1.2,1.755c-.046.046-.046.092-.092.139l-.323-.092A1.049,1.049,0,0,0,37.784,23.347Zm4.942-.508a3.878,3.878,0,0,1-3.233,3.095,3.739,3.739,0,0,1-1.016,0l.046-.139a4.509,4.509,0,0,0,.831-.785A1.483,1.483,0,0,0,40,24.963a.9.9,0,0,0,.277-1.617h-.046a3.624,3.624,0,0,0-.323-2.771l-.277-.416a3.194,3.194,0,0,0,.878-.462,3.951,3.951,0,0,1,1.016.693,2.854,2.854,0,0,1,1.062,1.478,1.442,1.442,0,0,1,.139.97Z" transform="translate(330.102 311.163)"/>
  </g>
</svg>
