<svg xmlns="http://www.w3.org/2000/svg" width="54.797" height="54.797" viewBox="0 0 54.797 54.797"><defs><style>.a{fill:#eb7099;}</style></defs><g transform="translate(-6.999 -959.362)"><path class="a" d="M10.186,959.362A3.343,3.343,0,0,0,7,962.548v15.929a.637.637,0,1,0,1.274,0V962.548a2,2,0,0,1,.617-1.314,1.929,1.929,0,0,1,1.294-.6H47.778a1.929,1.929,0,0,1,1.294.6,2,2,0,0,1,.617,1.314v7.646H21.017a3.343,3.343,0,0,0-3.186,3.186v28.673H10.186a2.1,2.1,0,0,1-1.912-1.932V982.3A.638.638,0,1,0,7,982.3v17.821a3.173,3.173,0,0,0,.976,2.21,3.172,3.172,0,0,0,2.21,1h7.646v7.626a3.382,3.382,0,0,0,3.186,3.206H58.61a3.343,3.343,0,0,0,3.186-3.186c0-.007,0-.013,0-.02V973.38a3.343,3.343,0,0,0-3.186-3.186H50.964v-7.646a3.343,3.343,0,0,0-3.186-3.186H10.186Zm10.832,12.106H58.61a1.929,1.929,0,0,1,1.294.6,2,2,0,0,1,.617,1.314v37.593a1.9,1.9,0,0,1-.6,1.294,2.009,2.009,0,0,1-1.314.617H21.017a2.1,2.1,0,0,1-1.911-1.931V973.38a2,2,0,0,1,.617-1.314,1.929,1.929,0,0,1,1.294-.6Zm17.2,10.832a10.881,10.881,0,0,0-5.416,20.29.637.637,0,1,0,.637-1.1,9.588,9.588,0,1,1,14.316-8.821L43,990.026a.642.642,0,0,0-.637,1.115l5.735,3.186a.637.637,0,0,0,.876-.259l3.186-5.734a.637.637,0,1,0-1.115-.617l-2.131,3.8A10.842,10.842,0,0,0,38.221,982.3Z" transform="translate(0 0)"/></g></svg>