<svg xmlns="http://www.w3.org/2000/svg" width="69.452" height="74.407" viewBox="0 0 69.452 74.407">
  <g id="Groupe_107" data-name="Groupe 107" transform="translate(-651 -378.643)">
    <path id="Tracé_59" data-name="Tracé 59" d="M77.974,18.025V15.173a2.629,2.629,0,0,0-2.634-2.617H73.161a2.629,2.629,0,0,0-2.634,2.617v2.794H53.553V15.173a2.629,2.629,0,0,0-2.634-2.617H48.739a2.629,2.629,0,0,0-2.634,2.617v2.794H29.132V15.173A2.628,2.628,0,0,0,26.5,12.556H24.319a2.629,2.629,0,0,0-2.634,2.617v2.9a7.586,7.586,0,0,0-6.406,7.5V79.357a7.64,7.64,0,0,0,7.656,7.606h54.14a7.64,7.64,0,0,0,7.656-7.606V25.573A7.63,7.63,0,0,0,77.974,18.025Zm-5.447-2.852a.632.632,0,0,1,.634-.63H75.34a.632.632,0,0,1,.634.63v7.576a.632.632,0,0,1-.634.63H73.161a.632.632,0,0,1-.634-.63Zm-24.421,0a.632.632,0,0,1,.634-.63H50.92a.632.632,0,0,1,.634.63v7.576a.632.632,0,0,1-.634.63H48.74a.632.632,0,0,1-.634-.63Zm-24.42,0a.632.632,0,0,1,.634-.63H26.5a.632.632,0,0,1,.633.63v7.576a.632.632,0,0,1-.633.63H24.32a.632.632,0,0,1-.634-.63Zm-2,4.924v2.651a2.629,2.629,0,0,0,2.634,2.617H26.5a2.628,2.628,0,0,0,2.633-2.617V19.953H46.107v2.795a2.629,2.629,0,0,0,2.634,2.617h2.179a2.629,2.629,0,0,0,2.634-2.617V19.953H70.529v2.795a2.629,2.629,0,0,0,2.634,2.617h2.178a2.629,2.629,0,0,0,2.634-2.617V20.032a5.635,5.635,0,0,1,4.758,5.541v9.67H17.279v-9.67A5.6,5.6,0,0,1,21.686,20.1Zm55.389,64.88H22.936a5.644,5.644,0,0,1-5.656-5.619V37.231H82.732V79.357A5.645,5.645,0,0,1,77.075,84.977Z" transform="translate(635.721 366.087)" fill="#eb7099"/>
    <path id="Tracé_60" data-name="Tracé 60" d="M22.934,81.719H70.2v-38.2H22.934ZM24.68,69.69h9.634v9.918H24.68Zm32.4-2.112H47.442V57.66h9.634Zm1.746-9.918h9.634v9.918H58.823ZM47.442,69.69h9.634v9.918H47.442ZM45.7,79.608H36.061V69.69H45.7Zm1.746-24.059V45.631h9.634v9.918Zm-1.746,0H36.061V45.631H45.7Zm0,2.112v9.918H36.061V57.66ZM34.315,67.578H24.68V57.66h9.634Zm24.508,12.03V69.69h9.634v9.918Zm9.634-24.059H58.823V45.631h9.634ZM34.315,45.631v9.918H24.68V45.631Z" transform="translate(638.691 364.998)" fill="#eb7099"/>
  </g>
</svg>
