<svg xmlns="http://www.w3.org/2000/svg" width="57.591" height="44.52" viewBox="0 0 57.591 44.52"><defs><style>.a{fill:#eb7099;stroke:#eb7099;stroke-width:0.5px;}</style></defs><path class="a" d="M270.382,227.509a8.6,8.6,0,0,0-5.912-2.343H224.642c-.276,0-.55.013-.822.039-.253.024-.5.06-.75.1-.048.009-.095.019-.143.029a8.632,8.632,0,0,0-6.918,8.46v26.756a8.642,8.642,0,0,0,8.632,8.632h39.827a8.642,8.642,0,0,0,8.632-8.632V233.8A8.655,8.655,0,0,0,270.382,227.509Zm-49.916.473.1-.069c.06-.042.121-.082.183-.122l.079-.052c.089-.056.178-.11.268-.161l.043-.024c.077-.044.154-.086.233-.126l.1-.047c.061-.031.123-.061.186-.089l.109-.049c.06-.026.121-.052.181-.076l.111-.045c.064-.025.128-.048.192-.071l.1-.036c.078-.026.156-.051.235-.074l.064-.02c.1-.029.2-.056.3-.08l.081-.018c.075-.017.15-.034.225-.049l.113-.02c.066-.012.133-.024.2-.034l.121-.016c.066-.009.132-.016.2-.024l.119-.012c.071-.006.143-.011.216-.015l.1-.006c.106,0,.212-.007.319-.007h39.827c.106,0,.213,0,.319.007l.1.006.216.015.118.012.2.024.121.016c.067.01.133.021.2.034l.112.02c.075.015.15.031.224.049l.082.019c.1.025.2.051.3.08l.064.02c.079.024.157.048.234.074l.1.036c.064.023.128.046.192.071l.111.044.182.077c.036.016.073.031.108.049l.189.09.094.046c.081.041.161.085.241.13l.035.019q.137.078.271.163l.072.047c.064.042.128.084.191.128l.09.064.1.074-24.185,20.813-24.185-20.815C220.4,228.028,220.434,228,220.466,227.982Zm44,39.732H224.642a7.169,7.169,0,0,1-7.16-7.16V233.8a7.08,7.08,0,0,1,1.8-4.744l24.8,21.341a.736.736,0,0,0,.959,0l24.8-21.341a7.077,7.077,0,0,1,1.8,4.744v26.756A7.169,7.169,0,0,1,264.47,267.714Z" transform="translate(-215.76 -224.916)"/></svg>