<svg xmlns="http://www.w3.org/2000/svg" width="74" height="54" viewBox="0 0 74 54">
  <path id="Tracé_30" data-name="Tracé 30" d="M25.231,973.362A14.09,14.09,0,0,0,11,987.328V1013.4a14.09,14.09,0,0,0,14.231,13.966H70.769A14.09,14.09,0,0,0,85,1013.4V987.328a14.09,14.09,0,0,0-14.231-13.966Zm0,1.862H70.769a12.173,12.173,0,0,1,12.333,12.1V1013.4a12.173,12.173,0,0,1-12.333,12.1H25.231A12.173,12.173,0,0,1,12.9,1013.4V987.328A12.173,12.173,0,0,1,25.231,975.224Zm14.083,13.034a.937.937,0,0,0-.8.9v22.345a.935.935,0,0,0,.771.931.964.964,0,0,0,.623-.116l20.872-11.172a.923.923,0,0,0,0-1.629L39.906,988.346a.965.965,0,0,0-.593-.087Zm1.1,2.473,17.966,9.6-17.966,9.6Z" transform="translate(-11 -973.362)" fill="#eb7099"/>
</svg>
