<svg width="74" height="63" viewBox="0 0 74 63" fill="none" xmlns="http://www.w3.org/2000/svg">
<path d="M15.0092 11.8628H59.5322" stroke="#EB7099" stroke-width="1.5" stroke-linecap="round"/>
<path d="M15.0092 19.6351H59.5322" stroke="#EB7099" stroke-width="1.5" stroke-linecap="round"/>
<path d="M15.0092 27.4072H59.5322" stroke="#EB7099" stroke-width="1.5" stroke-linecap="round"/>
<path d="M15.0092 35.1796H59.5322" stroke="#EB7099" stroke-width="1.5" stroke-linecap="round"/>
<path d="M73.0877 62.9844C73.3545 62.9282 73.5915 62.789 73.7579 62.5908C73.9243 62.3926 74.0096 62.1478 73.9991 61.8984V11.9449C73.9991 5.34621 68.479 0 61.666 0H12.3332C5.52014 0 0 5.34625 0 11.946V35.8368C0 42.4355 5.52014 47.7817 12.3332 47.7817H54.5178L72.1396 62.7134C72.2618 62.8245 72.4115 62.9071 72.576 62.9544C72.7406 63.0018 72.9152 63.0124 73.0852 62.9855L73.0877 62.9844ZM71.7558 59.5223L55.6706 45.8798C55.4729 45.709 55.2118 45.6123 54.9394 45.6088H12.3332C10.965 45.5754 9.61753 45.2956 8.36849 44.7857C7.11946 44.2757 5.99351 43.5455 5.05553 42.6373C4.11754 41.7291 3.38606 40.6607 2.90321 39.4938C2.42037 38.3268 2.19571 37.0844 2.24218 35.838V11.946C2.19571 10.6996 2.42037 9.45711 2.90321 8.29016C3.38606 7.12322 4.11754 6.05486 5.05553 5.14664C5.99351 4.23841 7.11946 3.50829 8.36849 2.9983C9.61753 2.48831 10.965 2.20859 12.3332 2.17518H61.6599C63.0281 2.20859 64.3755 2.48831 65.6246 2.9983C66.8736 3.50829 67.9995 4.23841 68.9375 5.14664C69.8755 6.05486 70.607 7.12322 71.0898 8.29016C71.5727 9.45711 71.7973 10.6996 71.7509 11.946L71.7558 59.5223Z" fill="#EB7099"/>
</svg>
