<svg xmlns="http://www.w3.org/2000/svg" width="72.664" height="74.41" viewBox="0 0 72.664 74.41">
  <path id="Tracé_31" data-name="Tracé 31" d="M44.332,6.594a20.31,20.31,0,0,0-20.355,20.25,20.1,20.1,0,0,0,2.244,9.17L23.976,46.072a.858.858,0,0,0,.241.8.868.868,0,0,0,.814.219l10.056-2.232A20.271,20.271,0,1,0,44.332,6.594Zm0,1.721a18.543,18.543,0,1,1-8.786,34.907.869.869,0,0,0-.595-.081L25.977,45.1l1.973-8.982a.857.857,0,0,0-.081-.592,18.317,18.317,0,0,1-2.163-8.686A18.558,18.558,0,0,1,44.332,8.315ZM34.978,23.966a2.9,2.9,0,1,0,2.92,2.9A2.947,2.947,0,0,0,34.978,23.966Zm9.353,0a2.9,2.9,0,1,0,2.92,2.9A2.947,2.947,0,0,0,44.332,23.966Zm9.353,0a2.9,2.9,0,1,0,2.92,2.9A2.947,2.947,0,0,0,53.685,23.966ZM34.978,25.688a1.183,1.183,0,1,1,0,2.367,1.184,1.184,0,1,1,0-2.367Zm9.353,0a1.183,1.183,0,1,1,0,2.367,1.184,1.184,0,1,1,0-2.367Zm9.353,0a1.183,1.183,0,1,1,0,2.367,1.184,1.184,0,1,1,0-2.367ZM76.5,41.608a4.009,4.009,0,0,0-2.865,1.237l-.027.027c-.026.026-2.394,2.358-4.947,4.894s-5.262,5.247-6,6.051a.859.859,0,0,0,.419,1.486.867.867,0,0,0,.851-.33c.612-.665,3.382-3.449,5.947-6s4.974-4.921,4.974-4.921h.027a2.207,2.207,0,0,1,1.622-.726,2.621,2.621,0,0,1,2.433,2.8,3.061,3.061,0,0,1-.595,1.829c-.03.035-10.428,12.471-17.139,20.277-1.923,2.237-4.69,4.572-8.623,4.572H32.059a7.659,7.659,0,0,0-5.7,1.909l-4.893,4.76a.859.859,0,0,0,.349,1.509.868.868,0,0,0,.868-.3l4.866-4.76c1.19-1.159,2.568-1.4,4.514-1.4H52.577c4.623,0,7.874-2.777,9.948-5.19,6.736-7.835,17.193-20.3,17.193-20.3q.014-.026.027-.054a4.75,4.75,0,0,0,.919-2.851A4.354,4.354,0,0,0,76.5,41.608ZM30.869,54.436c-3.591,0-7.146.487-9.948,2.77L8.324,67.479a.858.858,0,0,0-.135,1.21.869.869,0,0,0,1.216.134L22.03,58.55c2.337-1.9,5.408-2.393,8.84-2.393H56.929a4.215,4.215,0,0,1-.108,4.168c-.816,1.5-2.237,2.5-3.325,2.393q-.04-.015-.081-.027H36.9a.861.861,0,1,0,0,1.721H53.415c2.07.144,3.892-1.39,4.92-3.281a5.816,5.816,0,0,0-.135-6.347.867.867,0,0,0-.676-.35Z" transform="translate(-7.999 -6.594)" fill="#eb7099"/>
</svg>
